<svg xmlns="http://www.w3.org/2000/svg" viewBox="0 0 1220 630">
<rect width="1220" height="630" fill="#ffffff"/>
<defs>
<pattern id="hatch-T" width="4" height="4" patternUnits="userSpaceOnUse"><path d="M0,0 L0,4" stroke="#000" stroke-width="0.5"/></pattern>
<pattern id="hatch-F" width="4" height="4" patternUnits="userSpaceOnUse"><path d="M0,0 L4,0" stroke="#000" stroke-width="0.5"/></pattern>
<pattern id="hatch-B" width="4" height="4" patternUnits="userSpaceOnUse"><path d="M0,0 L0,4 M0,0 L4,0" stroke="#000" stroke-width="0.5"/></pattern>
</defs>
<line x1="0.0" y1="0.0" x2="0.0" y2="630.0" stroke="#e8e8e8" stroke-width="0.4" opacity="0.3"></line>
<line x1="40.0" y1="0.0" x2="40.0" y2="630.0" stroke="#e8e8e8" stroke-width="0.4" opacity="0.3"></line>
<line x1="80.0" y1="0.0" x2="80.0" y2="630.0" stroke="#e8e8e8" stroke-width="0.4" opacity="0.3"></line>
<line x1="120.0" y1="0.0" x2="120.0" y2="630.0" stroke="#e8e8e8" stroke-width="0.4" opacity="0.3"></line>
<line x1="160.0" y1="0.0" x2="160.0" y2="630.0" stroke="#e8e8e8" stroke-width="0.4" opacity="0.3"></line>
<line x1="200.0" y1="0.0" x2="200.0" y2="630.0" stroke="#e8e8e8" stroke-width="0.4" opacity="0.3"></line>
<line x1="240.0" y1="0.0" x2="240.0" y2="630.0" stroke="#e8e8e8" stroke-width="0.4" opacity="0.3"></line>
<line x1="280.0" y1="0.0" x2="280.0" y2="630.0" stroke="#e8e8e8" stroke-width="0.4" opacity="0.3"></line>
<line x1="320.0" y1="0.0" x2="320.0" y2="630.0" stroke="#e8e8e8" stroke-width="0.4" opacity="0.3"></line>
<line x1="360.0" y1="0.0" x2="360.0" y2="630.0" stroke="#e8e8e8" stroke-width="0.4" opacity="0.3"></line>
<line x1="400.0" y1="0.0" x2="400.0" y2="630.0" stroke="#e8e8e8" stroke-width="0.4" opacity="0.3"></line>
<line x1="440.0" y1="0.0" x2="440.0" y2="630.0" stroke="#e8e8e8" stroke-width="0.4" opacity="0.3"></line>
<line x1="480.0" y1="0.0" x2="480.0" y2="630.0" stroke="#e8e8e8" stroke-width="0.4" opacity="0.3"></line>
<line x1="520.0" y1="0.0" x2="520.0" y2="630.0" stroke="#e8e8e8" stroke-width="0.4" opacity="0.3"></line>
<line x1="560.0" y1="0.0" x2="560.0" y2="630.0" stroke="#e8e8e8" stroke-width="0.4" opacity="0.3"></line>
<line x1="600.0" y1="0.0" x2="600.0" y2="630.0" stroke="#e8e8e8" stroke-width="0.4" opacity="0.3"></line>
<line x1="640.0" y1="0.0" x2="640.0" y2="630.0" stroke="#e8e8e8" stroke-width="0.4" opacity="0.3"></line>
<line x1="680.0" y1="0.0" x2="680.0" y2="630.0" stroke="#e8e8e8" stroke-width="0.4" opacity="0.3"></line>
<line x1="720.0" y1="0.0" x2="720.0" y2="630.0" stroke="#e8e8e8" stroke-width="0.4" opacity="0.3"></line>
<line x1="760.0" y1="0.0" x2="760.0" y2="630.0" stroke="#e8e8e8" stroke-width="0.4" opacity="0.3"></line>
<line x1="800.0" y1="0.0" x2="800.0" y2="630.0" stroke="#e8e8e8" stroke-width="0.4" opacity="0.3"></line>
<line x1="840.0" y1="0.0" x2="840.0" y2="630.0" stroke="#e8e8e8" stroke-width="0.4" opacity="0.3"></line>
<line x1="880.0" y1="0.0" x2="880.0" y2="630.0" stroke="#e8e8e8" stroke-width="0.4" opacity="0.3"></line>
<line x1="920.0" y1="0.0" x2="920.0" y2="630.0" stroke="#e8e8e8" stroke-width="0.4" opacity="0.3"></line>
<line x1="960.0" y1="0.0" x2="960.0" y2="630.0" stroke="#e8e8e8" stroke-width="0.4" opacity="0.3"></line>
<line x1="1000.0" y1="0.0" x2="1000.0" y2="630.0" stroke="#e8e8e8" stroke-width="0.4" opacity="0.3"></line>
<line x1="1040.0" y1="0.0" x2="1040.0" y2="630.0" stroke="#e8e8e8" stroke-width="0.4" opacity="0.3"></line>
<line x1="1080.0" y1="0.0" x2="1080.0" y2="630.0" stroke="#e8e8e8" stroke-width="0.4" opacity="0.3"></line>
<line x1="1120.0" y1="0.0" x2="1120.0" y2="630.0" stroke="#e8e8e8" stroke-width="0.4" opacity="0.3"></line>
<line x1="1160.0" y1="0.0" x2="1160.0" y2="630.0" stroke="#e8e8e8" stroke-width="0.4" opacity="0.3"></line>
<line x1="1200.0" y1="0.0" x2="1200.0" y2="630.0" stroke="#e8e8e8" stroke-width="0.4" opacity="0.3"></line>
<line x1="0.0" y1="0.0" x2="1220.0" y2="0.0" stroke="#e8e8e8" stroke-width="0.4" opacity="0.3"></line>
<line x1="0.0" y1="40.0" x2="1220.0" y2="40.0" stroke="#e8e8e8" stroke-width="0.4" opacity="0.3"></line>
<line x1="0.0" y1="80.0" x2="1220.0" y2="80.0" stroke="#e8e8e8" stroke-width="0.4" opacity="0.3"></line>
<line x1="0.0" y1="120.0" x2="1220.0" y2="120.0" stroke="#e8e8e8" stroke-width="0.4" opacity="0.3"></line>
<line x1="0.0" y1="160.0" x2="1220.0" y2="160.0" stroke="#e8e8e8" stroke-width="0.4" opacity="0.3"></line>
<line x1="0.0" y1="200.0" x2="1220.0" y2="200.0" stroke="#e8e8e8" stroke-width="0.4" opacity="0.3"></line>
<line x1="0.0" y1="240.0" x2="1220.0" y2="240.0" stroke="#e8e8e8" stroke-width="0.4" opacity="0.3"></line>
<line x1="0.0" y1="280.0" x2="1220.0" y2="280.0" stroke="#e8e8e8" stroke-width="0.4" opacity="0.3"></line>
<line x1="0.0" y1="320.0" x2="1220.0" y2="320.0" stroke="#e8e8e8" stroke-width="0.4" opacity="0.3"></line>
<line x1="0.0" y1="360.0" x2="1220.0" y2="360.0" stroke="#e8e8e8" stroke-width="0.4" opacity="0.3"></line>
<line x1="0.0" y1="400.0" x2="1220.0" y2="400.0" stroke="#e8e8e8" stroke-width="0.4" opacity="0.3"></line>
<line x1="0.0" y1="440.0" x2="1220.0" y2="440.0" stroke="#e8e8e8" stroke-width="0.4" opacity="0.3"></line>
<line x1="0.0" y1="480.0" x2="1220.0" y2="480.0" stroke="#e8e8e8" stroke-width="0.4" opacity="0.3"></line>
<line x1="0.0" y1="520.0" x2="1220.0" y2="520.0" stroke="#e8e8e8" stroke-width="0.4" opacity="0.3"></line>
<line x1="0.0" y1="560.0" x2="1220.0" y2="560.0" stroke="#e8e8e8" stroke-width="0.4" opacity="0.3"></line>
<line x1="0.0" y1="600.0" x2="1220.0" y2="600.0" stroke="#e8e8e8" stroke-width="0.4" opacity="0.3"></line>
<text x="610.0" y="26.0" fill="#000000" font-size="13" text-anchor="middle" font-family="monospace" font-weight="bold">diels alder test</text>
<text x="22.0" y="190.0" fill="#000000" font-size="7" text-anchor="middle" font-family="monospace">T-lane</text>
<text x="22.0" y="470.0" fill="#000000" font-size="7" text-anchor="middle" font-family="monospace">F-lane</text>
<text x="22.0" y="330.0" fill="#000000" font-size="7" text-anchor="middle" font-family="monospace">main</text>
<line x1="867.8" y1="145.0" x2="867.8" y2="515.0" stroke="#000000" stroke-width="1.2" opacity="1.0"></line>
<line x1="875.8" y1="145.0" x2="875.8" y2="515.0" stroke="#000000" stroke-width="1.2" opacity="1.0"></line>
<line x1="864.8" y1="142.0" x2="870.8" y2="148.0" stroke="#000000" stroke-width="0.8"></line>
<line x1="870.8" y1="142.0" x2="864.8" y2="148.0" stroke="#000000" stroke-width="0.8"></line>
<line x1="872.8" y1="142.0" x2="878.8" y2="148.0" stroke="#000000" stroke-width="0.8"></line>
<line x1="878.8" y1="142.0" x2="872.8" y2="148.0" stroke="#000000" stroke-width="0.8"></line>
<line x1="864.8" y1="512.0" x2="870.8" y2="518.0" stroke="#000000" stroke-width="0.8"></line>
<line x1="870.8" y1="512.0" x2="864.8" y2="518.0" stroke="#000000" stroke-width="0.8"></line>
<line x1="872.8" y1="512.0" x2="878.8" y2="518.0" stroke="#000000" stroke-width="0.8"></line>
<line x1="878.8" y1="512.0" x2="872.8" y2="518.0" stroke="#000000" stroke-width="0.8"></line>
<text x="871.8" y="135.0" fill="#000000" font-size="7" text-anchor="middle" font-family="monospace" font-weight="bold">IFIX</text>
<line x1="348.2" y1="330.0" x2="417.2" y2="197.1" stroke="#000000" stroke-width="1.5" opacity="1.0"></line>
<polygon points="420.9,190.0 420.1,198.6 414.4,195.6" fill="#000000" opacity="1.0"></polygon>
<circle cx="384.5" cy="260.0" r="5" fill="#ffffff" stroke="none"></circle>
<text x="384.5" y="262.0" fill="#000000" font-size="8" text-anchor="middle" font-family="monospace" font-weight="bold">◇</text>
<line x1="420.9" y1="190.0" x2="777.1" y2="327.1" stroke="#000000" stroke-width="1.5" opacity="1.0"></line>
<polygon points="784.5,330.0 775.9,330.1 778.2,324.1" fill="#000000" opacity="1.0"></polygon>
<circle cx="602.7" cy="260.0" r="5" fill="#ffffff" stroke="none"></circle>
<text x="602.7" y="262.0" fill="#000000" font-size="8" text-anchor="middle" font-family="monospace" font-weight="bold">+</text>
<line x1="348.2" y1="330.0" x2="445.3" y2="463.5" stroke="#000000" stroke-width="1.5" opacity="1.0"></line>
<polygon points="450.0,470.0 442.7,465.4 447.9,461.6" fill="#000000" opacity="1.0"></polygon>
<circle cx="399.1" cy="400.0" r="5" fill="#ffffff" stroke="none"></circle>
<text x="399.1" y="402.0" fill="#000000" font-size="8" text-anchor="middle" font-family="monospace" font-weight="bold">◇</text>
<text x="399.1" y="396.0" fill="#000000" font-size="6" text-anchor="middle" font-family="monospace">◆↑→↑↓</text>
<line x1="450.0" y1="470.0" x2="514.7" y2="470.0" stroke="#000000" stroke-width="1.5" opacity="1.0" stroke-dasharray="6,4"></line>
<polygon points="522.7,470.0 514.7,473.2 514.7,466.8" fill="#000000" opacity="1.0"></polygon>
<text x="486.4" y="466.0" fill="#000000" font-size="6" text-anchor="middle" font-family="monospace">=↑↓→↑↓</text>
<polyline points="522.7,473.0 533.6,467.0 544.5,473.0 555.5,467.0 566.4,473.0 577.3,467.0 588.2,473.0 599.1,467.0 610.0,473.0" fill="none" stroke="#000000" stroke-width="1.5"></polyline>
<polygon points="610.0,470.0 603.0,472.8 603.0,467.2" fill="#000000"></polygon>
<text x="566.4" y="466.0" fill="#000000" font-size="6" text-anchor="middle" font-family="monospace">=↑↓→↑↓</text>
<line x1="610.0" y1="466.5" x2="688.3" y2="466.5" stroke="#000000" stroke-width="1.0" opacity="1.0"></line>
<line x1="610.0" y1="473.5" x2="688.3" y2="473.5" stroke="#000000" stroke-width="1.0" opacity="1.0"></line>
<polygon points="697.3,470.0 687.3,474.0 687.3,466.0" fill="#000000" opacity="1.0"></polygon>
<text x="653.6" y="466.0" fill="#000000" font-size="6" text-anchor="middle" font-family="monospace">=↑↓→↑↓</text>
<line x1="697.3" y1="470.0" x2="784.5" y2="330.0" stroke="#000000" stroke-width="1.5" opacity="1.0"></line>
<polygon points="702.6,461.5 703.9,454.1 708.6,457.1" fill="#000000" stroke="#000000" stroke-width="0.5"></polygon>
<circle cx="740.9" cy="400.0" r="5" fill="#ffffff" stroke="none"></circle>
<text x="740.9" y="402.0" fill="#000000" font-size="8" text-anchor="middle" font-family="monospace" font-weight="bold">←</text>
<text x="740.9" y="396.0" fill="#000000" font-size="6" text-anchor="middle" font-family="monospace">◆↑↓→↑</text>
<line x1="173.6" y1="330.0" x2="252.9" y2="330.0" stroke="#000000" stroke-width="1.5" opacity="1.0"></line>
<polyline points="252.9,333.2 260.9,330.0 252.9,326.8" fill="none" stroke="#000000" stroke-width="1.5"></polyline>
<text x="217.3" y="326.0" fill="#000000" font-size="6" text-anchor="middle" font-family="monospace">→↑</text>
<line x1="260.9" y1="330.0" x2="340.2" y2="330.0" stroke="#000000" stroke-width="2.5" opacity="1.0"></line>
<polygon points="348.2,330.0 340.2,333.2 340.2,326.8" fill="#000000" opacity="1.0"></polygon>
<line x1="871.8" y1="330.0" x2="951.1" y2="330.0" stroke="#000000" stroke-width="1.5" opacity="1.0" stroke-dasharray="2,4"></line>
<polygon points="959.1,330.0 951.1,333.2 951.1,326.8" fill="#000000" opacity="1.0"></polygon>
<line x1="959.1" y1="326.5" x2="1037.4" y2="326.5" stroke="#000000" stroke-width="1.0" opacity="1.0"></line>
<line x1="959.1" y1="333.5" x2="1037.4" y2="333.5" stroke="#000000" stroke-width="1.0" opacity="1.0"></line>
<polygon points="1046.4,330.0 1036.4,334.0 1036.4,326.0" fill="#000000" opacity="1.0"></polygon>
<line x1="784.5" y1="330.0" x2="863.8" y2="330.0" stroke="#000000" stroke-width="1.5" opacity="1.0"></line>
<polygon points="871.8,330.0 863.8,333.2 863.8,326.8" fill="#000000" opacity="1.0"></polygon>
<circle cx="828.2" cy="330.0" r="5" fill="#ffffff" stroke="none"></circle>
<text x="828.2" y="332.0" fill="#000000" font-size="8" text-anchor="middle" font-family="monospace" font-weight="bold">●</text>
<circle cx="173.6" cy="330.0" r="22.0" fill="none" stroke="#000000" stroke-width="1.8"></circle>
<text x="173.6" y="300.0" fill="#000000" font-size="8" text-anchor="middle" font-family="monospace" font-weight="bold">VI</text>
<text x="173.6" y="364.0" fill="#444" font-size="5.5" text-anchor="middle" font-family="monospace">VINIT</text>
<circle cx="196.6" cy="330.0" r="2.5" fill="#000000" stroke-width="0"></circle>
<circle cx="260.9" cy="330.0" r="22.0" fill="none" stroke="#000000" stroke-width="1.8"></circle>
<circle cx="260.9" cy="330.0" r="11.0" fill="url(#hatch-T)" stroke="#000000" stroke-width="0.6"></circle>
<text x="260.9" y="300.0" fill="#000000" font-size="8" text-anchor="middle" font-family="monospace" font-weight="bold">AF</text>
<text x="260.9" y="364.0" fill="#444" font-size="5.5" text-anchor="middle" font-family="monospace">AFWD</text>
<circle cx="237.9" cy="330.0" r="2.5" fill="none" stroke="#000000" stroke-width="0.6"></circle>
<circle cx="283.9" cy="330.0" r="2.5" fill="#000000" stroke-width="0"></circle>
<polygon points="348.18181818181813,308.0 370.2,330 348.18181818181813,352.0 326.2,330" fill="none" stroke="#000000" stroke-width="1.8"></polygon>
<circle cx="348.2" cy="330.0" r="11.0" fill="url(#hatch-T)" stroke="#000000" stroke-width="0.6"></circle>
<text x="348.2" y="300.0" fill="#000000" font-size="8" text-anchor="middle" font-family="monospace" font-weight="bold">FS</text>
<text x="348.2" y="364.0" fill="#444" font-size="5.5" text-anchor="middle" font-family="monospace">FSPLIT</text>
<circle cx="325.2" cy="330.0" r="2.5" fill="none" stroke="#000000" stroke-width="0.6"></circle>
<circle cx="371.2" cy="323.0" r="2.5" fill="#000000" stroke-width="0"></circle>
<circle cx="371.2" cy="337.0" r="2.5" fill="#000000" stroke-width="0"></circle>
<polygon points="440.0,201.0 420.9,212.0 401.9,201.0 401.9,179.0 420.9,168.0 440.0,179.0" fill="none" stroke="#000000" stroke-width="1.8"></polygon>
<circle cx="420.9" cy="190.0" r="11.0" fill="url(#hatch-T)" stroke="#000000" stroke-width="0.6"></circle>
<text x="420.9" y="160.0" fill="#000000" font-size="8" text-anchor="middle" font-family="monospace" font-weight="bold">ET</text>
<text x="420.9" y="224.0" fill="#444" font-size="5.5" text-anchor="middle" font-family="monospace">EVALT</text>
<circle cx="397.9" cy="190.0" r="3.5" fill="none" stroke="#000000" stroke-width="1.0"></circle>
<circle cx="443.9" cy="190.0" r="3.5" fill="#000000" stroke-width="0"></circle>
<circle cx="450.0" cy="470.0" r="22.0" fill="none" stroke="#000000" stroke-width="1.8"></circle>
<circle cx="450.0" cy="470.0" r="11.0" fill="url(#hatch-B)" stroke="#000000" stroke-width="0.6"></circle>
<text x="450.0" y="440.0" fill="#000000" font-size="8" text-anchor="middle" font-family="monospace" font-weight="bold">AR</text>
<text x="450.0" y="504.0" fill="#444" font-size="5.5" text-anchor="middle" font-family="monospace">AREV</text>
<circle cx="427.0" cy="470.0" r="2.5" fill="none" stroke="#000000" stroke-width="0.6"></circle>
<circle cx="473.0" cy="470.0" r="2.5" fill="#000000" stroke-width="0"></circle>
<polygon points="541.8,481.0 522.7,492.0 503.7,481.0 503.7,459.0 522.7,448.0 541.8,459.0" fill="none" stroke="#000000" stroke-width="1.8"></polygon>
<circle cx="522.7" cy="470.0" r="11.0" fill="url(#hatch-B)" stroke="#000000" stroke-width="0.6"></circle>
<text x="522.7" y="440.0" fill="#000000" font-size="8" text-anchor="middle" font-family="monospace" font-weight="bold">EG</text>
<text x="522.7" y="504.0" fill="#444" font-size="5.5" text-anchor="middle" font-family="monospace">ENGAGR</text>
<circle cx="499.7" cy="470.0" r="2.5" fill="none" stroke="#000000" stroke-width="0.6"></circle>
<circle cx="545.7" cy="470.0" r="2.5" fill="#000000" stroke-width="0"></circle>
<circle cx="610.0" cy="470.0" r="22.0" fill="none" stroke="#000000" stroke-width="1.8"></circle>
<circle cx="610.0" cy="470.0" r="11.0" fill="url(#hatch-B)" stroke="#000000" stroke-width="0.6"></circle>
<text x="610.0" y="440.0" fill="#000000" font-size="8" text-anchor="middle" font-family="monospace" font-weight="bold">CL</text>
<text x="610.0" y="504.0" fill="#444" font-size="5.5" text-anchor="middle" font-family="monospace">CLINK</text>
<circle cx="587.0" cy="470.0" r="2.5" fill="none" stroke="#000000" stroke-width="0.6"></circle>
<circle cx="633.0" cy="470.0" r="2.5" fill="#000000" stroke-width="0"></circle>
<circle cx="697.3" cy="470.0" r="22.0" fill="none" stroke="#000000" stroke-width="1.8"></circle>
<circle cx="697.3" cy="470.0" r="11.0" fill="url(#hatch-B)" stroke="#000000" stroke-width="0.6"></circle>
<text x="697.3" y="440.0" fill="#000000" font-size="8" text-anchor="middle" font-family="monospace" font-weight="bold">IM</text>
<text x="697.3" y="504.0" fill="#444" font-size="5.5" text-anchor="middle" font-family="monospace">IMSCRIB</text>
<circle cx="674.3" cy="470.0" r="2.5" fill="none" stroke="#000000" stroke-width="0.6"></circle>
<circle cx="720.3" cy="470.0" r="2.5" fill="#000000" stroke-width="0"></circle>
<polygon points="784.5454545454545,308.0 806.5,330 784.5454545454545,352.0 762.5,330" fill="none" stroke="#000000" stroke-width="1.8"></polygon>
<circle cx="784.5" cy="330.0" r="11.0" fill="url(#hatch-T)" stroke="#000000" stroke-width="0.6"></circle>
<text x="784.5" y="300.0" fill="#000000" font-size="8" text-anchor="middle" font-family="monospace" font-weight="bold">FF</text>
<text x="784.5" y="364.0" fill="#444" font-size="5.5" text-anchor="middle" font-family="monospace">FFUSE</text>
<circle cx="761.5" cy="323.0" r="2.5" fill="none" stroke="#000000" stroke-width="0.6"></circle>
<circle cx="761.5" cy="337.0" r="2.5" fill="none" stroke="#000000" stroke-width="0.6"></circle>
<circle cx="807.5" cy="330.0" r="2.5" fill="#000000" stroke-width="0"></circle>
<rect x="849.8" y="308.0" width="44.0" height="44.0" fill="none" stroke="#000000" stroke-width="1.8"></rect>
<circle cx="871.8" cy="330.0" r="11.0" fill="url(#hatch-T)" stroke="#000000" stroke-width="0.6"></circle>
<text x="871.8" y="300.0" fill="#000000" font-size="8" text-anchor="middle" font-family="monospace" font-weight="bold">IX</text>
<text x="871.8" y="364.0" fill="#444" font-size="5.5" text-anchor="middle" font-family="monospace">IFIX</text>
<circle cx="848.8" cy="330.0" r="2.5" fill="none" stroke="#000000" stroke-width="0.6"></circle>
<circle cx="894.8" cy="330.0" r="2.5" fill="#000000" stroke-width="0"></circle>
<circle cx="959.1" cy="330.0" r="22.0" fill="none" stroke="#000000" stroke-width="1.8"></circle>
<circle cx="959.1" cy="330.0" r="11.0" fill="url(#hatch-T)" stroke="#000000" stroke-width="0.6"></circle>
<text x="959.1" y="300.0" fill="#000000" font-size="8" text-anchor="middle" font-family="monospace" font-weight="bold">CL</text>
<text x="959.1" y="364.0" fill="#444" font-size="5.5" text-anchor="middle" font-family="monospace">CLINK</text>
<circle cx="936.1" cy="330.0" r="2.5" fill="none" stroke="#000000" stroke-width="0.6"></circle>
<circle cx="982.1" cy="330.0" r="2.5" fill="#000000" stroke-width="0"></circle>
<circle cx="1046.4" cy="330.0" r="22.0" fill="none" stroke="#000000" stroke-width="1.8"></circle>
<circle cx="1046.4" cy="330.0" r="11.0" fill="url(#hatch-T)" stroke="#000000" stroke-width="0.6"></circle>
<text x="1046.4" y="300.0" fill="#000000" font-size="8" text-anchor="middle" font-family="monospace" font-weight="bold">IM</text>
<text x="1046.4" y="364.0" fill="#444" font-size="5.5" text-anchor="middle" font-family="monospace">IMSCRIB</text>
<circle cx="1023.4" cy="330.0" r="2.5" fill="none" stroke="#000000" stroke-width="0.6"></circle>
<circle cx="1069.4" cy="330.0" r="2.5" fill="#000000" stroke-width="0"></circle>
<line x1="370.2" y1="330.0" x2="378.2" y2="330.0" stroke="#000000" stroke-width="0.8" opacity="1.0"></line>
<line x1="754.5" y1="330.0" x2="762.5" y2="330.0" stroke="#000000" stroke-width="0.8" opacity="1.0"></line>
<line x1="378.2" y1="330.0" x2="754.5" y2="330.0" stroke="#000000" stroke-width="0.6" opacity="0.7" stroke-dasharray="2,2"></line>
<circle cx="566.4" cy="312.0" r="7" fill="#ffffff" stroke="#000000" stroke-width="0.5"></circle>
<text x="566.4" y="314.0" fill="#000000" font-size="7" text-anchor="middle" font-family="monospace" font-weight="bold">①</text>
<path d="M1046.4,330.0 Q610.0,275.0 173.6,330.0" fill="none" stroke="#000000" stroke-width="1.5" opacity="0.7"></path>
<polygon points="173.6,330.0 165.2,327.0 166.2,335.0" fill="#000000" opacity="0.7"></polygon>
<text x="610.0" y="260.0" fill="#000000" font-size="8" text-anchor="middle" font-family="serif">O₂</text>
<text x="610.0" y="621.0" fill="#555" font-size="7" text-anchor="middle" font-family="serif">Ouroboricity: O₂</text>
<text x="14.0" y="72.0" fill="#000000" font-size="6" text-anchor="start" font-family="monospace" font-weight="bold">EDGES</text>
<line x1="14.0" y1="88.0" x2="30.0" y2="88.0" stroke="#000000" stroke-width="1.0" opacity="0.8"></line>
<text x="34.0" y="91.0" fill="#000000" font-size="5" text-anchor="start" font-family="monospace">VI</text>
<line x1="14.0" y1="97.0" x2="30.0" y2="97.0" stroke="#000000" stroke-width="1.0" opacity="0.8" stroke-dasharray="4,3"></line>
<text x="34.0" y="100.0" fill="#000000" font-size="5" text-anchor="start" font-family="monospace">TA</text>
<line x1="14.0" y1="106.0" x2="30.0" y2="106.0" stroke="#000000" stroke-width="1.0" opacity="0.8"></line>
<text x="34.0" y="109.0" fill="#000000" font-size="5" text-anchor="start" font-family="monospace">AF</text>
<line x1="14.0" y1="115.0" x2="30.0" y2="115.0" stroke="#000000" stroke-width="1.0" opacity="0.8" stroke-dasharray="6,4"></line>
<text x="34.0" y="118.0" fill="#000000" font-size="5" text-anchor="start" font-family="monospace">AR</text>
<line x1="14.0" y1="124.0" x2="30.0" y2="124.0" stroke="#000000" stroke-width="1.0" opacity="0.8"></line>
<text x="34.0" y="127.0" fill="#000000" font-size="5" text-anchor="start" font-family="monospace">CL</text>
<line x1="14.0" y1="133.0" x2="30.0" y2="133.0" stroke="#000000" stroke-width="1.0" opacity="0.8"></line>
<text x="34.0" y="136.0" fill="#000000" font-size="5" text-anchor="start" font-family="monospace">IM</text>
<line x1="14.0" y1="142.0" x2="30.0" y2="142.0" stroke="#000000" stroke-width="1.0" opacity="0.8"></line>
<text x="34.0" y="145.0" fill="#000000" font-size="5" text-anchor="start" font-family="monospace">FS</text>
<line x1="14.0" y1="151.0" x2="30.0" y2="151.0" stroke="#000000" stroke-width="1.0" opacity="0.8"></line>
<text x="34.0" y="154.0" fill="#000000" font-size="5" text-anchor="start" font-family="monospace">FF</text>
<line x1="14.0" y1="160.0" x2="30.0" y2="160.0" stroke="#000000" stroke-width="1.0" opacity="0.8"></line>
<text x="34.0" y="163.0" fill="#000000" font-size="5" text-anchor="start" font-family="monospace">ET</text>
<line x1="14.0" y1="169.0" x2="30.0" y2="169.0" stroke="#000000" stroke-width="1.0" opacity="0.8"></line>
<text x="34.0" y="172.0" fill="#000000" font-size="5" text-anchor="start" font-family="monospace">EF</text>
<line x1="14.0" y1="178.0" x2="30.0" y2="178.0" stroke="#000000" stroke-width="1.0" opacity="0.8"></line>
<text x="34.0" y="181.0" fill="#000000" font-size="5" text-anchor="start" font-family="monospace">EG</text>
<line x1="14.0" y1="187.0" x2="30.0" y2="187.0" stroke="#000000" stroke-width="1.0" opacity="0.8" stroke-dasharray="2,4"></line>
<text x="34.0" y="190.0" fill="#000000" font-size="5" text-anchor="start" font-family="monospace">IX</text>
<text x="14.0" y="195.0" fill="#000000" font-size="6" text-anchor="start" font-family="monospace" font-weight="bold">GUARD</text>
<circle cx="19.0" cy="211.0" r="3.0" fill="none" stroke="#000000" stroke-width="1.0"></circle>
<text x="28.0" y="214.0" fill="#000000" font-size="5" text-anchor="start" font-family="monospace">○ in</text>
<circle cx="19.0" cy="222.0" r="3.0" fill="#000000" stroke-width="0"></circle>
<text x="28.0" y="225.0" fill="#000000" font-size="5" text-anchor="start" font-family="monospace">● out</text>
<text x="14.0" y="231.0" fill="#000000" font-size="6" text-anchor="start" font-family="monospace" font-weight="bold">NODES</text>
<circle cx="20.0" cy="247.0" r="4.0" fill="none" stroke="#000000" stroke-width="1.0"></circle>
<text x="28.0" y="250.0" fill="#000000" font-size="5" text-anchor="start" font-family="monospace">LOGI</text>
<polygon points="20,255.0 24.0,259 20,263.0 16.0,259" fill="none" stroke="#000000" stroke-width="1.0"></polygon>
<text x="28.0" y="262.0" fill="#000000" font-size="5" text-anchor="start" font-family="monospace">FROB</text>
<polygon points="23.5,273.0 20.0,275.0 16.5,273.0 16.5,269.0 20.0,267.0 23.5,269.0" fill="none" stroke="#000000" stroke-width="1.0"></polygon>
<text x="28.0" y="274.0" fill="#000000" font-size="5" text-anchor="start" font-family="monospace">DIAL</text>
<rect x="16.0" y="279.0" width="8.0" height="8.0" fill="none" stroke="#000000" stroke-width="1.0"></rect>
<text x="28.0" y="286.0" fill="#000000" font-size="5" text-anchor="start" font-family="monospace">LINE</text>
<text x="14.0" y="294.0" fill="#000000" font-size="6" text-anchor="start" font-family="monospace" font-weight="bold">PAIRS</text>
<text x="19.0" y="313.0" fill="#000000" font-size="5" text-anchor="start" font-family="monospace">① ② ③...</text>
<line x1="14.0" y1="321.0" x2="30.0" y2="321.0" stroke="#000000" stroke-width="1.0" opacity="0.6" stroke-dasharray="5,3"></line>
<text x="34.0" y="324.0" fill="#000000" font-size="5" text-anchor="start" font-family="monospace">←× cross</text>
<line x1="14.0" y1="332.0" x2="30.0" y2="332.0" stroke="#000000" stroke-width="1.0" opacity="0.5"></line>
<text x="34.0" y="335.0" fill="#000000" font-size="5" text-anchor="start" font-family="monospace">← loop</text>
<text x="14.0" y="341.0" fill="#000000" font-size="6" text-anchor="start" font-family="monospace" font-weight="bold">REG Δ</text>
<text x="19.0" y="360.0" fill="#000000" font-size="5" text-anchor="start" font-family="monospace">→∅↑</text>
<text x="19.0" y="370.0" fill="#000000" font-size="5" text-anchor="start" font-family="monospace">◆→B</text>
<text x="19.0" y="380.0" fill="#000000" font-size="5" text-anchor="start" font-family="monospace">×T→F</text>
</svg>