<svg xmlns="http://www.w3.org/2000/svg" viewBox="0 0 1100 630">
<rect width="1100" height="630" fill="#ffffff"/>
<defs>
<pattern id="hatch-T" width="4" height="4" patternUnits="userSpaceOnUse"><path d="M0,0 L0,4" stroke="#000" stroke-width="0.5"/></pattern>
<pattern id="hatch-F" width="4" height="4" patternUnits="userSpaceOnUse"><path d="M0,0 L4,0" stroke="#000" stroke-width="0.5"/></pattern>
<pattern id="hatch-B" width="4" height="4" patternUnits="userSpaceOnUse"><path d="M0,0 L0,4 M0,0 L4,0" stroke="#000" stroke-width="0.5"/></pattern>
</defs>
<line x1="0.0" y1="0.0" x2="0.0" y2="630.0" stroke="#e8e8e8" stroke-width="0.4" opacity="0.3"></line>
<line x1="40.0" y1="0.0" x2="40.0" y2="630.0" stroke="#e8e8e8" stroke-width="0.4" opacity="0.3"></line>
<line x1="80.0" y1="0.0" x2="80.0" y2="630.0" stroke="#e8e8e8" stroke-width="0.4" opacity="0.3"></line>
<line x1="120.0" y1="0.0" x2="120.0" y2="630.0" stroke="#e8e8e8" stroke-width="0.4" opacity="0.3"></line>
<line x1="160.0" y1="0.0" x2="160.0" y2="630.0" stroke="#e8e8e8" stroke-width="0.4" opacity="0.3"></line>
<line x1="200.0" y1="0.0" x2="200.0" y2="630.0" stroke="#e8e8e8" stroke-width="0.4" opacity="0.3"></line>
<line x1="240.0" y1="0.0" x2="240.0" y2="630.0" stroke="#e8e8e8" stroke-width="0.4" opacity="0.3"></line>
<line x1="280.0" y1="0.0" x2="280.0" y2="630.0" stroke="#e8e8e8" stroke-width="0.4" opacity="0.3"></line>
<line x1="320.0" y1="0.0" x2="320.0" y2="630.0" stroke="#e8e8e8" stroke-width="0.4" opacity="0.3"></line>
<line x1="360.0" y1="0.0" x2="360.0" y2="630.0" stroke="#e8e8e8" stroke-width="0.4" opacity="0.3"></line>
<line x1="400.0" y1="0.0" x2="400.0" y2="630.0" stroke="#e8e8e8" stroke-width="0.4" opacity="0.3"></line>
<line x1="440.0" y1="0.0" x2="440.0" y2="630.0" stroke="#e8e8e8" stroke-width="0.4" opacity="0.3"></line>
<line x1="480.0" y1="0.0" x2="480.0" y2="630.0" stroke="#e8e8e8" stroke-width="0.4" opacity="0.3"></line>
<line x1="520.0" y1="0.0" x2="520.0" y2="630.0" stroke="#e8e8e8" stroke-width="0.4" opacity="0.3"></line>
<line x1="560.0" y1="0.0" x2="560.0" y2="630.0" stroke="#e8e8e8" stroke-width="0.4" opacity="0.3"></line>
<line x1="600.0" y1="0.0" x2="600.0" y2="630.0" stroke="#e8e8e8" stroke-width="0.4" opacity="0.3"></line>
<line x1="640.0" y1="0.0" x2="640.0" y2="630.0" stroke="#e8e8e8" stroke-width="0.4" opacity="0.3"></line>
<line x1="680.0" y1="0.0" x2="680.0" y2="630.0" stroke="#e8e8e8" stroke-width="0.4" opacity="0.3"></line>
<line x1="720.0" y1="0.0" x2="720.0" y2="630.0" stroke="#e8e8e8" stroke-width="0.4" opacity="0.3"></line>
<line x1="760.0" y1="0.0" x2="760.0" y2="630.0" stroke="#e8e8e8" stroke-width="0.4" opacity="0.3"></line>
<line x1="800.0" y1="0.0" x2="800.0" y2="630.0" stroke="#e8e8e8" stroke-width="0.4" opacity="0.3"></line>
<line x1="840.0" y1="0.0" x2="840.0" y2="630.0" stroke="#e8e8e8" stroke-width="0.4" opacity="0.3"></line>
<line x1="880.0" y1="0.0" x2="880.0" y2="630.0" stroke="#e8e8e8" stroke-width="0.4" opacity="0.3"></line>
<line x1="920.0" y1="0.0" x2="920.0" y2="630.0" stroke="#e8e8e8" stroke-width="0.4" opacity="0.3"></line>
<line x1="960.0" y1="0.0" x2="960.0" y2="630.0" stroke="#e8e8e8" stroke-width="0.4" opacity="0.3"></line>
<line x1="1000.0" y1="0.0" x2="1000.0" y2="630.0" stroke="#e8e8e8" stroke-width="0.4" opacity="0.3"></line>
<line x1="1040.0" y1="0.0" x2="1040.0" y2="630.0" stroke="#e8e8e8" stroke-width="0.4" opacity="0.3"></line>
<line x1="1080.0" y1="0.0" x2="1080.0" y2="630.0" stroke="#e8e8e8" stroke-width="0.4" opacity="0.3"></line>
<line x1="0.0" y1="0.0" x2="1100.0" y2="0.0" stroke="#e8e8e8" stroke-width="0.4" opacity="0.3"></line>
<line x1="0.0" y1="40.0" x2="1100.0" y2="40.0" stroke="#e8e8e8" stroke-width="0.4" opacity="0.3"></line>
<line x1="0.0" y1="80.0" x2="1100.0" y2="80.0" stroke="#e8e8e8" stroke-width="0.4" opacity="0.3"></line>
<line x1="0.0" y1="120.0" x2="1100.0" y2="120.0" stroke="#e8e8e8" stroke-width="0.4" opacity="0.3"></line>
<line x1="0.0" y1="160.0" x2="1100.0" y2="160.0" stroke="#e8e8e8" stroke-width="0.4" opacity="0.3"></line>
<line x1="0.0" y1="200.0" x2="1100.0" y2="200.0" stroke="#e8e8e8" stroke-width="0.4" opacity="0.3"></line>
<line x1="0.0" y1="240.0" x2="1100.0" y2="240.0" stroke="#e8e8e8" stroke-width="0.4" opacity="0.3"></line>
<line x1="0.0" y1="280.0" x2="1100.0" y2="280.0" stroke="#e8e8e8" stroke-width="0.4" opacity="0.3"></line>
<line x1="0.0" y1="320.0" x2="1100.0" y2="320.0" stroke="#e8e8e8" stroke-width="0.4" opacity="0.3"></line>
<line x1="0.0" y1="360.0" x2="1100.0" y2="360.0" stroke="#e8e8e8" stroke-width="0.4" opacity="0.3"></line>
<line x1="0.0" y1="400.0" x2="1100.0" y2="400.0" stroke="#e8e8e8" stroke-width="0.4" opacity="0.3"></line>
<line x1="0.0" y1="440.0" x2="1100.0" y2="440.0" stroke="#e8e8e8" stroke-width="0.4" opacity="0.3"></line>
<line x1="0.0" y1="480.0" x2="1100.0" y2="480.0" stroke="#e8e8e8" stroke-width="0.4" opacity="0.3"></line>
<line x1="0.0" y1="520.0" x2="1100.0" y2="520.0" stroke="#e8e8e8" stroke-width="0.4" opacity="0.3"></line>
<line x1="0.0" y1="560.0" x2="1100.0" y2="560.0" stroke="#e8e8e8" stroke-width="0.4" opacity="0.3"></line>
<line x1="0.0" y1="600.0" x2="1100.0" y2="600.0" stroke="#e8e8e8" stroke-width="0.4" opacity="0.3"></line>
<text x="550.0" y="26.0" fill="#000000" font-size="13" text-anchor="middle" font-family="monospace" font-weight="bold">XXI Paradox Bridge</text>
<text x="550.0" y="41.0" fill="#444" font-size="7" text-anchor="middle" font-family="monospace">ENGAGR-sourced fork with outer F-wire bridging into the inner FFUSE. B-state from ENGAGR splits: T-path reaches inner split where gates EVALT/EVALF discrim</text>
<text x="22.0" y="190.0" fill="#000000" font-size="7" text-anchor="middle" font-family="monospace">T-lane</text>
<text x="22.0" y="470.0" fill="#000000" font-size="7" text-anchor="middle" font-family="monospace">F-lane</text>
<text x="22.0" y="330.0" fill="#000000" font-size="7" text-anchor="middle" font-family="monospace">main</text>
<polyline points="138.6,333.0 155.7,327.0 172.9,333.0 190.0,327.0 207.1,333.0 224.3,327.0 241.4,333.0 258.6,327.0 275.7,333.0" fill="none" stroke="#000000" stroke-width="1.5"></polyline>
<polygon points="275.7,330.0 268.7,332.8 268.7,327.2" fill="#000000"></polygon>
<line x1="275.7" y1="330.0" x2="404.9" y2="330.0" stroke="#000000" stroke-width="1.5" opacity="1.0"></line>
<polygon points="412.9,330.0 404.9,333.2 404.9,326.8" fill="#000000" opacity="1.0"></polygon>
<circle cx="344.3" cy="330.0" r="5" fill="#ffffff" stroke="none"></circle>
<text x="344.3" y="332.0" fill="#000000" font-size="8" text-anchor="middle" font-family="monospace" font-weight="bold">◇</text>
<line x1="275.7" y1="330.0" x2="679.1" y2="330.0" stroke="#000000" stroke-width="1.5" opacity="1.0" stroke-dasharray="5,3"></line>
<polygon points="687.1,330.0 679.1,333.2 679.1,326.8" fill="#000000" opacity="1.0"></polygon>
<line x1="275.7" y1="330.0" x2="687.1" y2="330.0" stroke="#000000" stroke-width="1.5" opacity="1.0" stroke-dasharray="5,3"></line>
<circle cx="481.4" cy="330.0" r="5" fill="#ffffff" stroke="none"></circle>
<text x="481.4" y="332.0" fill="#000000" font-size="8" text-anchor="middle" font-family="monospace" font-weight="bold">×</text>
<text x="481.4" y="326.0" fill="#000000" font-size="6" text-anchor="middle" font-family="monospace">→↑</text>
<line x1="412.9" y1="330.0" x2="522.1" y2="196.2" stroke="#000000" stroke-width="1.5" opacity="1.0"></line>
<polygon points="527.1,190.0 524.6,198.2 519.6,194.2" fill="#000000" opacity="1.0"></polygon>
<circle cx="470.0" cy="260.0" r="5" fill="#ffffff" stroke="none"></circle>
<text x="470.0" y="262.0" fill="#000000" font-size="8" text-anchor="middle" font-family="monospace" font-weight="bold">◇</text>
<text x="470.0" y="256.0" fill="#000000" font-size="6" text-anchor="middle" font-family="monospace">→↑</text>
<line x1="412.9" y1="330.0" x2="566.8" y2="464.7" stroke="#000000" stroke-width="1.5" opacity="1.0"></line>
<polygon points="572.9,470.0 564.7,467.1 568.9,462.3" fill="#000000" opacity="1.0"></polygon>
<circle cx="492.9" cy="400.0" r="5" fill="#ffffff" stroke="none"></circle>
<text x="492.9" y="402.0" fill="#000000" font-size="8" text-anchor="middle" font-family="monospace" font-weight="bold">◇</text>
<text x="492.9" y="396.0" fill="#000000" font-size="6" text-anchor="middle" font-family="monospace">◆↑↓</text>
<line x1="527.1" y1="190.0" x2="681.1" y2="324.7" stroke="#000000" stroke-width="1.5" opacity="1.0"></line>
<polygon points="687.1,330.0 679.0,327.1 683.2,322.3" fill="#000000" opacity="1.0"></polygon>
<circle cx="607.1" cy="260.0" r="5" fill="#ffffff" stroke="none"></circle>
<text x="607.1" y="262.0" fill="#000000" font-size="8" text-anchor="middle" font-family="monospace" font-weight="bold">+</text>
<line x1="572.9" y1="470.0" x2="817.3" y2="333.9" stroke="#000000" stroke-width="1.5" opacity="1.0"></line>
<polygon points="824.3,330.0 818.9,336.7 815.7,331.1" fill="#000000" opacity="1.0"></polygon>
<circle cx="698.6" cy="400.0" r="5" fill="#ffffff" stroke="none"></circle>
<text x="698.6" y="402.0" fill="#000000" font-size="8" text-anchor="middle" font-family="monospace" font-weight="bold">×</text>
<text x="698.6" y="396.0" fill="#000000" font-size="6" text-anchor="middle" font-family="monospace">◆↑↓→↑</text>
<line x1="687.1" y1="330.0" x2="816.3" y2="330.0" stroke="#000000" stroke-width="1.5" opacity="1.0"></line>
<polygon points="824.3,330.0 816.3,333.2 816.3,326.8" fill="#000000" opacity="1.0"></polygon>
<circle cx="755.7" cy="330.0" r="5" fill="#ffffff" stroke="none"></circle>
<text x="755.7" y="332.0" fill="#000000" font-size="8" text-anchor="middle" font-family="monospace" font-weight="bold">●</text>
<line x1="824.3" y1="330.0" x2="953.4" y2="330.0" stroke="#000000" stroke-width="1.5" opacity="1.0"></line>
<polygon points="961.4,330.0 953.4,333.2 953.4,326.8" fill="#000000" opacity="1.0"></polygon>
<circle cx="892.9" cy="330.0" r="5" fill="#ffffff" stroke="none"></circle>
<text x="892.9" y="332.0" fill="#000000" font-size="8" text-anchor="middle" font-family="monospace" font-weight="bold">●</text>
<polygon points="157.6,341.0 138.6,352.0 119.5,341.0 119.5,319.0 138.6,308.0 157.6,319.0" fill="none" stroke="#000000" stroke-width="1.8"></polygon>
<text x="138.6" y="300.0" fill="#000000" font-size="8" text-anchor="middle" font-family="monospace" font-weight="bold">EG</text>
<text x="138.6" y="364.0" fill="#444" font-size="5.5" text-anchor="middle" font-family="monospace">ENGAGR</text>
<circle cx="115.6" cy="330.0" r="2.5" fill="none" stroke="#000000" stroke-width="0.6"></circle>
<circle cx="161.6" cy="330.0" r="2.5" fill="#000000" stroke-width="0"></circle>
<polygon points="275.7142857142857,308.0 297.7,330 275.7142857142857,352.0 253.7,330" fill="none" stroke="#000000" stroke-width="1.8"></polygon>
<text x="275.7" y="300.0" fill="#000000" font-size="8" text-anchor="middle" font-family="monospace" font-weight="bold">FS</text>
<text x="275.7" y="364.0" fill="#444" font-size="5.5" text-anchor="middle" font-family="monospace">FSPLIT</text>
<circle cx="252.7" cy="330.0" r="2.5" fill="none" stroke="#000000" stroke-width="0.6"></circle>
<circle cx="298.7" cy="323.0" r="2.5" fill="#000000" stroke-width="0"></circle>
<circle cx="298.7" cy="337.0" r="2.5" fill="#000000" stroke-width="0"></circle>
<polygon points="412.85714285714283,308.0 434.9,330 412.85714285714283,352.0 390.9,330" fill="none" stroke="#000000" stroke-width="1.8"></polygon>
<text x="412.9" y="300.0" fill="#000000" font-size="8" text-anchor="middle" font-family="monospace" font-weight="bold">FS</text>
<text x="412.9" y="364.0" fill="#444" font-size="5.5" text-anchor="middle" font-family="monospace">FSPLIT</text>
<circle cx="389.9" cy="330.0" r="2.5" fill="none" stroke="#000000" stroke-width="0.6"></circle>
<circle cx="435.9" cy="323.0" r="2.5" fill="#000000" stroke-width="0"></circle>
<circle cx="435.9" cy="337.0" r="2.5" fill="#000000" stroke-width="0"></circle>
<polygon points="546.2,201.0 527.1,212.0 508.1,201.0 508.1,179.0 527.1,168.0 546.2,179.0" fill="none" stroke="#000000" stroke-width="1.8"></polygon>
<circle cx="527.1" cy="190.0" r="11.0" fill="url(#hatch-T)" stroke="#000000" stroke-width="0.6"></circle>
<text x="527.1" y="160.0" fill="#000000" font-size="8" text-anchor="middle" font-family="monospace" font-weight="bold">ET</text>
<text x="527.1" y="224.0" fill="#444" font-size="5.5" text-anchor="middle" font-family="monospace">EVALT</text>
<circle cx="504.1" cy="190.0" r="3.5" fill="none" stroke="#000000" stroke-width="1.0"></circle>
<circle cx="550.1" cy="190.0" r="3.5" fill="#000000" stroke-width="0"></circle>
<polygon points="591.9,481.0 572.9,492.0 553.8,481.0 553.8,459.0 572.9,448.0 591.9,459.0" fill="none" stroke="#000000" stroke-width="1.8"></polygon>
<circle cx="572.9" cy="470.0" r="11.0" fill="url(#hatch-B)" stroke="#000000" stroke-width="0.6"></circle>
<text x="572.9" y="440.0" fill="#000000" font-size="8" text-anchor="middle" font-family="monospace" font-weight="bold">EF</text>
<text x="572.9" y="504.0" fill="#444" font-size="5.5" text-anchor="middle" font-family="monospace">EVALF</text>
<circle cx="549.9" cy="470.0" r="3.5" fill="none" stroke="#000000" stroke-width="1.0"></circle>
<circle cx="595.9" cy="470.0" r="3.5" fill="#000000" stroke-width="0"></circle>
<polygon points="687.1428571428571,308.0 709.1,330 687.1428571428571,352.0 665.1,330" fill="none" stroke="#000000" stroke-width="1.8"></polygon>
<circle cx="687.1" cy="330.0" r="11.0" fill="url(#hatch-T)" stroke="#000000" stroke-width="0.6"></circle>
<text x="687.1" y="300.0" fill="#000000" font-size="8" text-anchor="middle" font-family="monospace" font-weight="bold">FF</text>
<text x="687.1" y="364.0" fill="#444" font-size="5.5" text-anchor="middle" font-family="monospace">FFUSE</text>
<circle cx="664.1" cy="323.0" r="2.5" fill="none" stroke="#000000" stroke-width="0.6"></circle>
<circle cx="664.1" cy="337.0" r="2.5" fill="none" stroke="#000000" stroke-width="0.6"></circle>
<circle cx="710.1" cy="330.0" r="2.5" fill="#000000" stroke-width="0"></circle>
<polygon points="824.2857142857142,308.0 846.3,330 824.2857142857142,352.0 802.3,330" fill="none" stroke="#000000" stroke-width="1.8"></polygon>
<circle cx="824.3" cy="330.0" r="11.0" fill="url(#hatch-T)" stroke="#000000" stroke-width="0.6"></circle>
<text x="824.3" y="300.0" fill="#000000" font-size="8" text-anchor="middle" font-family="monospace" font-weight="bold">FF</text>
<text x="824.3" y="364.0" fill="#444" font-size="5.5" text-anchor="middle" font-family="monospace">FFUSE</text>
<circle cx="801.3" cy="323.0" r="2.5" fill="none" stroke="#000000" stroke-width="0.6"></circle>
<circle cx="801.3" cy="337.0" r="2.5" fill="none" stroke="#000000" stroke-width="0.6"></circle>
<circle cx="847.3" cy="330.0" r="2.5" fill="#000000" stroke-width="0"></circle>
<circle cx="961.4" cy="330.0" r="22.0" fill="none" stroke="#000000" stroke-width="1.8"></circle>
<circle cx="961.4" cy="330.0" r="11.0" fill="url(#hatch-T)" stroke="#000000" stroke-width="0.6"></circle>
<text x="961.4" y="300.0" fill="#000000" font-size="8" text-anchor="middle" font-family="monospace" font-weight="bold">IM</text>
<text x="961.4" y="364.0" fill="#444" font-size="5.5" text-anchor="middle" font-family="monospace">IMSCRIB</text>
<circle cx="938.4" cy="330.0" r="2.5" fill="none" stroke="#000000" stroke-width="0.6"></circle>
<circle cx="984.4" cy="330.0" r="2.5" fill="#000000" stroke-width="0"></circle>
<line x1="434.9" y1="330.0" x2="442.9" y2="330.0" stroke="#000000" stroke-width="0.8" opacity="1.0"></line>
<line x1="657.1" y1="330.0" x2="665.1" y2="330.0" stroke="#000000" stroke-width="0.8" opacity="1.0"></line>
<line x1="442.9" y1="330.0" x2="657.1" y2="330.0" stroke="#000000" stroke-width="0.6" opacity="0.7" stroke-dasharray="2,2"></line>
<circle cx="550.0" cy="312.0" r="7" fill="#ffffff" stroke="#000000" stroke-width="0.5"></circle>
<text x="550.0" y="314.0" fill="#000000" font-size="7" text-anchor="middle" font-family="monospace" font-weight="bold">①</text>
<line x1="297.7" y1="330.0" x2="305.7" y2="330.0" stroke="#000000" stroke-width="0.8" opacity="1.0"></line>
<line x1="794.3" y1="330.0" x2="802.3" y2="330.0" stroke="#000000" stroke-width="0.8" opacity="1.0"></line>
<line x1="305.7" y1="330.0" x2="794.3" y2="330.0" stroke="#000000" stroke-width="0.6" opacity="0.7" stroke-dasharray="2,2"></line>
<circle cx="550.0" cy="312.0" r="7" fill="#ffffff" stroke="#000000" stroke-width="0.5"></circle>
<text x="550.0" y="314.0" fill="#000000" font-size="7" text-anchor="middle" font-family="monospace" font-weight="bold">②</text>
<path d="M961.4,330.0 Q550.0,275.0 138.6,330.0" fill="none" stroke="#000000" stroke-width="1.5" opacity="0.7"></path>
<polygon points="138.6,330.0 130.1,327.1 131.2,335.0" fill="#000000" opacity="0.7"></polygon>
<text x="550.0" y="260.0" fill="#000000" font-size="8" text-anchor="middle" font-family="serif">O₂</text>
<text x="550.0" y="621.0" fill="#555" font-size="7" text-anchor="middle" font-family="serif">Ouroboricity: O₂</text>
<text x="70.0" y="52.0" fill="#000000" font-size="6" text-anchor="start" font-family="monospace" font-weight="bold">NODES</text>
<circle cx="110.0" cy="59.0" r="4.5" fill="none" stroke="#000000" stroke-width="1.0"></circle>
<text x="120.0" y="62.0" fill="#000000" font-size="5" text-anchor="start" font-family="monospace">LOGI</text>
<polygon points="158,54.5 162.5,59 158,63.5 153.5,59" fill="none" stroke="#000000" stroke-width="1.0"></polygon>
<text x="168.0" y="62.0" fill="#000000" font-size="5" text-anchor="start" font-family="monospace">FROB</text>
<polygon points="209.9,61.2 206.0,63.5 202.1,61.2 202.1,56.8 206.0,54.5 209.9,56.8" fill="none" stroke="#000000" stroke-width="1.0"></polygon>
<text x="216.0" y="62.0" fill="#000000" font-size="5" text-anchor="start" font-family="monospace">DIAL</text>
<rect x="249.5" y="54.5" width="9.0" height="9.0" fill="none" stroke="#000000" stroke-width="1.0"></rect>
<text x="264.0" y="62.0" fill="#000000" font-size="5" text-anchor="start" font-family="monospace">LINE</text>
<text x="312.0" y="52.0" fill="#000000" font-size="6" text-anchor="start" font-family="monospace" font-weight="bold">EDGES</text>
<line x1="350.0" y1="59.0" x2="364.0" y2="59.0" stroke="#000000" stroke-width="1.5" opacity="0.9"></line>
<text x="368.0" y="62.0" fill="#000000" font-size="5" text-anchor="start" font-family="monospace">VI</text>
<line x1="394.0" y1="59.0" x2="408.0" y2="59.0" stroke="#000000" stroke-width="1.5" opacity="0.9" stroke-dasharray="6,2,2,2,2,2"></line>
<text x="412.0" y="62.0" fill="#000000" font-size="5" text-anchor="start" font-family="monospace">TA</text>
<line x1="438.0" y1="59.0" x2="452.0" y2="59.0" stroke="#000000" stroke-width="1.5" opacity="0.9"></line>
<text x="456.0" y="62.0" fill="#000000" font-size="5" text-anchor="start" font-family="monospace">AF</text>
<line x1="482.0" y1="59.0" x2="496.0" y2="59.0" stroke="#000000" stroke-width="1.5" opacity="0.9" stroke-dasharray="4,3"></line>
<text x="500.0" y="62.0" fill="#000000" font-size="5" text-anchor="start" font-family="monospace">AR</text>
<line x1="526.0" y1="59.0" x2="540.0" y2="59.0" stroke="#000000" stroke-width="1.5" opacity="0.9"></line>
<text x="544.0" y="62.0" fill="#000000" font-size="5" text-anchor="start" font-family="monospace">CL</text>
<line x1="570.0" y1="59.0" x2="584.0" y2="59.0" stroke="#000000" stroke-width="1.5" opacity="0.9"></line>
<text x="588.0" y="62.0" fill="#000000" font-size="5" text-anchor="start" font-family="monospace">IM</text>
<text x="70.0" y="72.0" fill="#000000" font-size="6" text-anchor="start" font-family="monospace" font-weight="bold">GUARD</text>
<circle cx="110.0" cy="79.0" r="3.0" fill="none" stroke="#000000" stroke-width="1.0"></circle>
<text x="117.0" y="82.0" fill="#000000" font-size="5" text-anchor="start" font-family="monospace">○ in</text>
<circle cx="150.0" cy="79.0" r="3.0" fill="#000000" stroke-width="0"></circle>
<text x="157.0" y="82.0" fill="#000000" font-size="5" text-anchor="start" font-family="monospace">● out</text>
<text x="200.0" y="72.0" fill="#000000" font-size="6" text-anchor="start" font-family="monospace" font-weight="bold">REG</text>
<text x="230.0" y="82.0" fill="#000000" font-size="5" text-anchor="start" font-family="monospace">→∅↑</text>
<text x="260.0" y="82.0" fill="#000000" font-size="5" text-anchor="start" font-family="monospace">◆→B</text>
<text x="290.0" y="82.0" fill="#000000" font-size="5" text-anchor="start" font-family="monospace">×T→F</text>
<text x="330.0" y="72.0" fill="#000000" font-size="6" text-anchor="start" font-family="monospace" font-weight="bold">PAIRS</text>
<text x="370.0" y="82.0" fill="#000000" font-size="5" text-anchor="start" font-family="monospace">① ②...</text>
<line x1="420.0" y1="79.0" x2="434.0" y2="79.0" stroke="#000000" stroke-width="1.5" opacity="0.6" stroke-dasharray="5,3"></line>
<text x="438.0" y="82.0" fill="#000000" font-size="5" text-anchor="start" font-family="monospace">←×</text>
<line x1="470.0" y1="79.0" x2="484.0" y2="79.0" stroke="#000000" stroke-width="1.5" opacity="0.5"></line>
<text x="488.0" y="82.0" fill="#000000" font-size="5" text-anchor="start" font-family="monospace">loop</text>
</svg>