<svg xmlns="http://www.w3.org/2000/svg" viewBox="0 0 1100 630">
<rect width="1100" height="630" fill="#ffffff"/>
<defs>
<pattern id="hatch-T" width="4" height="4" patternUnits="userSpaceOnUse"><path d="M0,0 L0,4" stroke="#000" stroke-width="0.5"/></pattern>
<pattern id="hatch-F" width="4" height="4" patternUnits="userSpaceOnUse"><path d="M0,0 L4,0" stroke="#000" stroke-width="0.5"/></pattern>
<pattern id="hatch-B" width="4" height="4" patternUnits="userSpaceOnUse"><path d="M0,0 L0,4 M0,0 L4,0" stroke="#000" stroke-width="0.5"/></pattern>
</defs>
<line x1="0.0" y1="0.0" x2="0.0" y2="630.0" stroke="#e8e8e8" stroke-width="0.4" opacity="0.3"></line>
<line x1="40.0" y1="0.0" x2="40.0" y2="630.0" stroke="#e8e8e8" stroke-width="0.4" opacity="0.3"></line>
<line x1="80.0" y1="0.0" x2="80.0" y2="630.0" stroke="#e8e8e8" stroke-width="0.4" opacity="0.3"></line>
<line x1="120.0" y1="0.0" x2="120.0" y2="630.0" stroke="#e8e8e8" stroke-width="0.4" opacity="0.3"></line>
<line x1="160.0" y1="0.0" x2="160.0" y2="630.0" stroke="#e8e8e8" stroke-width="0.4" opacity="0.3"></line>
<line x1="200.0" y1="0.0" x2="200.0" y2="630.0" stroke="#e8e8e8" stroke-width="0.4" opacity="0.3"></line>
<line x1="240.0" y1="0.0" x2="240.0" y2="630.0" stroke="#e8e8e8" stroke-width="0.4" opacity="0.3"></line>
<line x1="280.0" y1="0.0" x2="280.0" y2="630.0" stroke="#e8e8e8" stroke-width="0.4" opacity="0.3"></line>
<line x1="320.0" y1="0.0" x2="320.0" y2="630.0" stroke="#e8e8e8" stroke-width="0.4" opacity="0.3"></line>
<line x1="360.0" y1="0.0" x2="360.0" y2="630.0" stroke="#e8e8e8" stroke-width="0.4" opacity="0.3"></line>
<line x1="400.0" y1="0.0" x2="400.0" y2="630.0" stroke="#e8e8e8" stroke-width="0.4" opacity="0.3"></line>
<line x1="440.0" y1="0.0" x2="440.0" y2="630.0" stroke="#e8e8e8" stroke-width="0.4" opacity="0.3"></line>
<line x1="480.0" y1="0.0" x2="480.0" y2="630.0" stroke="#e8e8e8" stroke-width="0.4" opacity="0.3"></line>
<line x1="520.0" y1="0.0" x2="520.0" y2="630.0" stroke="#e8e8e8" stroke-width="0.4" opacity="0.3"></line>
<line x1="560.0" y1="0.0" x2="560.0" y2="630.0" stroke="#e8e8e8" stroke-width="0.4" opacity="0.3"></line>
<line x1="600.0" y1="0.0" x2="600.0" y2="630.0" stroke="#e8e8e8" stroke-width="0.4" opacity="0.3"></line>
<line x1="640.0" y1="0.0" x2="640.0" y2="630.0" stroke="#e8e8e8" stroke-width="0.4" opacity="0.3"></line>
<line x1="680.0" y1="0.0" x2="680.0" y2="630.0" stroke="#e8e8e8" stroke-width="0.4" opacity="0.3"></line>
<line x1="720.0" y1="0.0" x2="720.0" y2="630.0" stroke="#e8e8e8" stroke-width="0.4" opacity="0.3"></line>
<line x1="760.0" y1="0.0" x2="760.0" y2="630.0" stroke="#e8e8e8" stroke-width="0.4" opacity="0.3"></line>
<line x1="800.0" y1="0.0" x2="800.0" y2="630.0" stroke="#e8e8e8" stroke-width="0.4" opacity="0.3"></line>
<line x1="840.0" y1="0.0" x2="840.0" y2="630.0" stroke="#e8e8e8" stroke-width="0.4" opacity="0.3"></line>
<line x1="880.0" y1="0.0" x2="880.0" y2="630.0" stroke="#e8e8e8" stroke-width="0.4" opacity="0.3"></line>
<line x1="920.0" y1="0.0" x2="920.0" y2="630.0" stroke="#e8e8e8" stroke-width="0.4" opacity="0.3"></line>
<line x1="960.0" y1="0.0" x2="960.0" y2="630.0" stroke="#e8e8e8" stroke-width="0.4" opacity="0.3"></line>
<line x1="1000.0" y1="0.0" x2="1000.0" y2="630.0" stroke="#e8e8e8" stroke-width="0.4" opacity="0.3"></line>
<line x1="1040.0" y1="0.0" x2="1040.0" y2="630.0" stroke="#e8e8e8" stroke-width="0.4" opacity="0.3"></line>
<line x1="1080.0" y1="0.0" x2="1080.0" y2="630.0" stroke="#e8e8e8" stroke-width="0.4" opacity="0.3"></line>
<line x1="0.0" y1="0.0" x2="1100.0" y2="0.0" stroke="#e8e8e8" stroke-width="0.4" opacity="0.3"></line>
<line x1="0.0" y1="40.0" x2="1100.0" y2="40.0" stroke="#e8e8e8" stroke-width="0.4" opacity="0.3"></line>
<line x1="0.0" y1="80.0" x2="1100.0" y2="80.0" stroke="#e8e8e8" stroke-width="0.4" opacity="0.3"></line>
<line x1="0.0" y1="120.0" x2="1100.0" y2="120.0" stroke="#e8e8e8" stroke-width="0.4" opacity="0.3"></line>
<line x1="0.0" y1="160.0" x2="1100.0" y2="160.0" stroke="#e8e8e8" stroke-width="0.4" opacity="0.3"></line>
<line x1="0.0" y1="200.0" x2="1100.0" y2="200.0" stroke="#e8e8e8" stroke-width="0.4" opacity="0.3"></line>
<line x1="0.0" y1="240.0" x2="1100.0" y2="240.0" stroke="#e8e8e8" stroke-width="0.4" opacity="0.3"></line>
<line x1="0.0" y1="280.0" x2="1100.0" y2="280.0" stroke="#e8e8e8" stroke-width="0.4" opacity="0.3"></line>
<line x1="0.0" y1="320.0" x2="1100.0" y2="320.0" stroke="#e8e8e8" stroke-width="0.4" opacity="0.3"></line>
<line x1="0.0" y1="360.0" x2="1100.0" y2="360.0" stroke="#e8e8e8" stroke-width="0.4" opacity="0.3"></line>
<line x1="0.0" y1="400.0" x2="1100.0" y2="400.0" stroke="#e8e8e8" stroke-width="0.4" opacity="0.3"></line>
<line x1="0.0" y1="440.0" x2="1100.0" y2="440.0" stroke="#e8e8e8" stroke-width="0.4" opacity="0.3"></line>
<line x1="0.0" y1="480.0" x2="1100.0" y2="480.0" stroke="#e8e8e8" stroke-width="0.4" opacity="0.3"></line>
<line x1="0.0" y1="520.0" x2="1100.0" y2="520.0" stroke="#e8e8e8" stroke-width="0.4" opacity="0.3"></line>
<line x1="0.0" y1="560.0" x2="1100.0" y2="560.0" stroke="#e8e8e8" stroke-width="0.4" opacity="0.3"></line>
<line x1="0.0" y1="600.0" x2="1100.0" y2="600.0" stroke="#e8e8e8" stroke-width="0.4" opacity="0.3"></line>
<text x="550.0" y="26.0" fill="#000000" font-size="13" text-anchor="middle" font-family="monospace" font-weight="bold">XX Branch Entangle</text>
<text x="550.0" y="41.0" fill="#444" font-size="7" text-anchor="middle" font-family="monospace">Two nested FSPLITs with fully crossed F-outputs. FSPLIT1.F→FFUSE_inner; FSPLIT2.F→FFUSE_outer. Creates an X-crossing: depth-1 F-wire terminates at depth-2 </text>
<text x="22.0" y="190.0" fill="#000000" font-size="7" text-anchor="middle" font-family="monospace">T-lane</text>
<text x="22.0" y="470.0" fill="#000000" font-size="7" text-anchor="middle" font-family="monospace">F-lane</text>
<text x="22.0" y="330.0" fill="#000000" font-size="7" text-anchor="middle" font-family="monospace">main</text>
<line x1="130.0" y1="330.0" x2="242.0" y2="330.0" stroke="#000000" stroke-width="1.5" opacity="1.0"></line>
<polyline points="242.0,333.2 250.0,330.0 242.0,326.8" fill="none" stroke="#000000" stroke-width="1.5"></polyline>
<line x1="250.0" y1="330.0" x2="362.0" y2="330.0" stroke="#000000" stroke-width="1.5" opacity="1.0"></line>
<polygon points="370.0,330.0 362.0,333.2 362.0,326.8" fill="#000000" opacity="1.0"></polygon>
<circle cx="310.0" cy="330.0" r="5" fill="#ffffff" stroke="none"></circle>
<text x="310.0" y="332.0" fill="#000000" font-size="8" text-anchor="middle" font-family="monospace" font-weight="bold">◇</text>
<line x1="250.0" y1="330.0" x2="602.0" y2="330.0" stroke="#000000" stroke-width="1.5" opacity="1.0" stroke-dasharray="5,3"></line>
<polygon points="610.0,330.0 602.0,333.2 602.0,326.8" fill="#000000" opacity="1.0"></polygon>
<line x1="250.0" y1="330.0" x2="610.0" y2="330.0" stroke="#000000" stroke-width="1.5" opacity="1.0" stroke-dasharray="5,3"></line>
<circle cx="430.0" cy="330.0" r="5" fill="#ffffff" stroke="none"></circle>
<text x="430.0" y="332.0" fill="#000000" font-size="8" text-anchor="middle" font-family="monospace" font-weight="bold">×</text>
<text x="430.0" y="326.0" fill="#000000" font-size="6" text-anchor="middle" font-family="monospace">→↑</text>
<line x1="370.0" y1="330.0" x2="484.8" y2="196.1" stroke="#000000" stroke-width="1.5" opacity="1.0"></line>
<polygon points="490.0,190.0 487.2,198.2 482.4,194.0" fill="#000000" opacity="1.0"></polygon>
<circle cx="430.0" cy="260.0" r="5" fill="#ffffff" stroke="none"></circle>
<text x="430.0" y="262.0" fill="#000000" font-size="8" text-anchor="middle" font-family="monospace" font-weight="bold">◇</text>
<text x="430.0" y="256.0" fill="#000000" font-size="6" text-anchor="middle" font-family="monospace">→↑</text>
<line x1="370.0" y1="330.0" x2="842.0" y2="330.0" stroke="#000000" stroke-width="1.5" opacity="1.0" stroke-dasharray="5,3"></line>
<polygon points="850.0,330.0 842.0,333.2 842.0,326.8" fill="#000000" opacity="1.0"></polygon>
<line x1="370.0" y1="330.0" x2="850.0" y2="330.0" stroke="#000000" stroke-width="1.5" opacity="1.0" stroke-dasharray="5,3"></line>
<circle cx="610.0" cy="330.0" r="5" fill="#ffffff" stroke="none"></circle>
<text x="610.0" y="332.0" fill="#000000" font-size="8" text-anchor="middle" font-family="monospace" font-weight="bold">×</text>
<text x="610.0" y="326.0" fill="#000000" font-size="6" text-anchor="middle" font-family="monospace">→↑</text>
<line x1="490.0" y1="190.0" x2="604.8" y2="323.9" stroke="#000000" stroke-width="1.5" opacity="1.0"></line>
<polygon points="610.0,330.0 602.4,326.0 607.2,321.8" fill="#000000" opacity="1.0"></polygon>
<circle cx="550.0" cy="260.0" r="5" fill="#ffffff" stroke="none"></circle>
<text x="550.0" y="262.0" fill="#000000" font-size="8" text-anchor="middle" font-family="monospace" font-weight="bold">+</text>
<line x1="610.0" y1="330.0" x2="724.8" y2="463.9" stroke="#000000" stroke-width="1.5" opacity="1.0"></line>
<polygon points="730.0,470.0 722.4,466.0 727.2,461.8" fill="#000000" opacity="1.0"></polygon>
<circle cx="670.0" cy="400.0" r="5" fill="#ffffff" stroke="none"></circle>
<text x="670.0" y="402.0" fill="#000000" font-size="8" text-anchor="middle" font-family="monospace" font-weight="bold">●</text>
<text x="670.0" y="396.0" fill="#000000" font-size="6" text-anchor="middle" font-family="monospace">◆↑→↑↓</text>
<line x1="730.0" y1="470.0" x2="844.8" y2="336.1" stroke="#000000" stroke-width="1.5" opacity="1.0"></line>
<polygon points="850.0,330.0 847.2,338.2 842.4,334.0" fill="#000000" opacity="1.0"></polygon>
<circle cx="790.0" cy="400.0" r="5" fill="#ffffff" stroke="none"></circle>
<text x="790.0" y="402.0" fill="#000000" font-size="8" text-anchor="middle" font-family="monospace" font-weight="bold">×</text>
<text x="790.0" y="396.0" fill="#000000" font-size="6" text-anchor="middle" font-family="monospace">◆↑↓→↑</text>
<line x1="850.0" y1="330.0" x2="962.0" y2="330.0" stroke="#000000" stroke-width="1.5" opacity="1.0"></line>
<polygon points="970.0,330.0 962.0,333.2 962.0,326.8" fill="#000000" opacity="1.0"></polygon>
<circle cx="910.0" cy="330.0" r="5" fill="#ffffff" stroke="none"></circle>
<text x="910.0" y="332.0" fill="#000000" font-size="8" text-anchor="middle" font-family="monospace" font-weight="bold">●</text>
<circle cx="130.0" cy="330.0" r="22.0" fill="none" stroke="#000000" stroke-width="1.8"></circle>
<text x="130.0" y="300.0" fill="#000000" font-size="8" text-anchor="middle" font-family="monospace" font-weight="bold">VI</text>
<text x="130.0" y="364.0" fill="#444" font-size="5.5" text-anchor="middle" font-family="monospace">VINIT</text>
<circle cx="153.0" cy="330.0" r="2.5" fill="#000000" stroke-width="0"></circle>
<polygon points="250.0,308.0 272.0,330 250.0,352.0 228.0,330" fill="none" stroke="#000000" stroke-width="1.8"></polygon>
<text x="250.0" y="300.0" fill="#000000" font-size="8" text-anchor="middle" font-family="monospace" font-weight="bold">FS</text>
<text x="250.0" y="364.0" fill="#444" font-size="5.5" text-anchor="middle" font-family="monospace">FSPLIT</text>
<circle cx="227.0" cy="330.0" r="2.5" fill="none" stroke="#000000" stroke-width="0.6"></circle>
<circle cx="273.0" cy="323.0" r="2.5" fill="#000000" stroke-width="0"></circle>
<circle cx="273.0" cy="337.0" r="2.5" fill="#000000" stroke-width="0"></circle>
<polygon points="370.0,308.0 392.0,330 370.0,352.0 348.0,330" fill="none" stroke="#000000" stroke-width="1.8"></polygon>
<text x="370.0" y="300.0" fill="#000000" font-size="8" text-anchor="middle" font-family="monospace" font-weight="bold">FS</text>
<text x="370.0" y="364.0" fill="#444" font-size="5.5" text-anchor="middle" font-family="monospace">FSPLIT</text>
<circle cx="347.0" cy="330.0" r="2.5" fill="none" stroke="#000000" stroke-width="0.6"></circle>
<circle cx="393.0" cy="323.0" r="2.5" fill="#000000" stroke-width="0"></circle>
<circle cx="393.0" cy="337.0" r="2.5" fill="#000000" stroke-width="0"></circle>
<polygon points="509.1,201.0 490.0,212.0 470.9,201.0 470.9,179.0 490.0,168.0 509.1,179.0" fill="none" stroke="#000000" stroke-width="1.8"></polygon>
<circle cx="490.0" cy="190.0" r="11.0" fill="url(#hatch-T)" stroke="#000000" stroke-width="0.6"></circle>
<text x="490.0" y="160.0" fill="#000000" font-size="8" text-anchor="middle" font-family="monospace" font-weight="bold">ET</text>
<text x="490.0" y="224.0" fill="#444" font-size="5.5" text-anchor="middle" font-family="monospace">EVALT</text>
<circle cx="467.0" cy="190.0" r="3.5" fill="none" stroke="#000000" stroke-width="1.0"></circle>
<circle cx="513.0" cy="190.0" r="3.5" fill="#000000" stroke-width="0"></circle>
<polygon points="610.0,308.0 632.0,330 610.0,352.0 588.0,330" fill="none" stroke="#000000" stroke-width="1.8"></polygon>
<circle cx="610.0" cy="330.0" r="11.0" fill="url(#hatch-T)" stroke="#000000" stroke-width="0.6"></circle>
<text x="610.0" y="300.0" fill="#000000" font-size="8" text-anchor="middle" font-family="monospace" font-weight="bold">FF</text>
<text x="610.0" y="364.0" fill="#444" font-size="5.5" text-anchor="middle" font-family="monospace">FFUSE</text>
<circle cx="587.0" cy="323.0" r="2.5" fill="none" stroke="#000000" stroke-width="0.6"></circle>
<circle cx="587.0" cy="337.0" r="2.5" fill="none" stroke="#000000" stroke-width="0.6"></circle>
<circle cx="633.0" cy="330.0" r="2.5" fill="#000000" stroke-width="0"></circle>
<polygon points="749.1,481.0 730.0,492.0 710.9,481.0 710.9,459.0 730.0,448.0 749.1,459.0" fill="none" stroke="#000000" stroke-width="1.8"></polygon>
<circle cx="730.0" cy="470.0" r="11.0" fill="url(#hatch-B)" stroke="#000000" stroke-width="0.6"></circle>
<text x="730.0" y="440.0" fill="#000000" font-size="8" text-anchor="middle" font-family="monospace" font-weight="bold">EF</text>
<text x="730.0" y="504.0" fill="#444" font-size="5.5" text-anchor="middle" font-family="monospace">EVALF</text>
<circle cx="707.0" cy="470.0" r="3.5" fill="none" stroke="#000000" stroke-width="1.0"></circle>
<circle cx="753.0" cy="470.0" r="3.5" fill="#000000" stroke-width="0"></circle>
<polygon points="850.0,308.0 872.0,330 850.0,352.0 828.0,330" fill="none" stroke="#000000" stroke-width="1.8"></polygon>
<circle cx="850.0" cy="330.0" r="11.0" fill="url(#hatch-T)" stroke="#000000" stroke-width="0.6"></circle>
<text x="850.0" y="300.0" fill="#000000" font-size="8" text-anchor="middle" font-family="monospace" font-weight="bold">FF</text>
<text x="850.0" y="364.0" fill="#444" font-size="5.5" text-anchor="middle" font-family="monospace">FFUSE</text>
<circle cx="827.0" cy="323.0" r="2.5" fill="none" stroke="#000000" stroke-width="0.6"></circle>
<circle cx="827.0" cy="337.0" r="2.5" fill="none" stroke="#000000" stroke-width="0.6"></circle>
<circle cx="873.0" cy="330.0" r="2.5" fill="#000000" stroke-width="0"></circle>
<circle cx="970.0" cy="330.0" r="22.0" fill="none" stroke="#000000" stroke-width="1.8"></circle>
<circle cx="970.0" cy="330.0" r="11.0" fill="url(#hatch-T)" stroke="#000000" stroke-width="0.6"></circle>
<text x="970.0" y="300.0" fill="#000000" font-size="8" text-anchor="middle" font-family="monospace" font-weight="bold">TA</text>
<text x="970.0" y="364.0" fill="#444" font-size="5.5" text-anchor="middle" font-family="monospace">TANCH</text>
<circle cx="947.0" cy="330.0" r="2.5" fill="none" stroke="#000000" stroke-width="0.6"></circle>
<circle cx="993.0" cy="330.0" r="2.5" fill="#000000" stroke-width="0"></circle>
<line x1="392.0" y1="330.0" x2="400.0" y2="330.0" stroke="#000000" stroke-width="0.8" opacity="1.0"></line>
<line x1="580.0" y1="330.0" x2="588.0" y2="330.0" stroke="#000000" stroke-width="0.8" opacity="1.0"></line>
<line x1="400.0" y1="330.0" x2="580.0" y2="330.0" stroke="#000000" stroke-width="0.6" opacity="0.7" stroke-dasharray="2,2"></line>
<circle cx="490.0" cy="312.0" r="7" fill="#ffffff" stroke="#000000" stroke-width="0.5"></circle>
<text x="490.0" y="314.0" fill="#000000" font-size="7" text-anchor="middle" font-family="monospace" font-weight="bold">①</text>
<line x1="272.0" y1="330.0" x2="280.0" y2="330.0" stroke="#000000" stroke-width="0.8" opacity="1.0"></line>
<line x1="820.0" y1="330.0" x2="828.0" y2="330.0" stroke="#000000" stroke-width="0.8" opacity="1.0"></line>
<line x1="280.0" y1="330.0" x2="820.0" y2="330.0" stroke="#000000" stroke-width="0.6" opacity="0.7" stroke-dasharray="2,2"></line>
<circle cx="550.0" cy="312.0" r="7" fill="#ffffff" stroke="#000000" stroke-width="0.5"></circle>
<text x="550.0" y="314.0" fill="#000000" font-size="7" text-anchor="middle" font-family="monospace" font-weight="bold">②</text>
<path d="M970.0,330.0 Q550.0,275.0 130.0,330.0" fill="none" stroke="#000000" stroke-width="1.5" opacity="0.7"></path>
<polygon points="130.0,330.0 121.5,327.1 122.6,335.0" fill="#000000" opacity="0.7"></polygon>
<text x="550.0" y="260.0" fill="#000000" font-size="8" text-anchor="middle" font-family="serif">O₂</text>
<text x="550.0" y="621.0" fill="#555" font-size="7" text-anchor="middle" font-family="serif">Ouroboricity: O₂</text>
<text x="70.0" y="52.0" fill="#000000" font-size="6" text-anchor="start" font-family="monospace" font-weight="bold">NODES</text>
<circle cx="110.0" cy="59.0" r="4.5" fill="none" stroke="#000000" stroke-width="1.0"></circle>
<text x="120.0" y="62.0" fill="#000000" font-size="5" text-anchor="start" font-family="monospace">LOGI</text>
<polygon points="158,54.5 162.5,59 158,63.5 153.5,59" fill="none" stroke="#000000" stroke-width="1.0"></polygon>
<text x="168.0" y="62.0" fill="#000000" font-size="5" text-anchor="start" font-family="monospace">FROB</text>
<polygon points="209.9,61.2 206.0,63.5 202.1,61.2 202.1,56.8 206.0,54.5 209.9,56.8" fill="none" stroke="#000000" stroke-width="1.0"></polygon>
<text x="216.0" y="62.0" fill="#000000" font-size="5" text-anchor="start" font-family="monospace">DIAL</text>
<rect x="249.5" y="54.5" width="9.0" height="9.0" fill="none" stroke="#000000" stroke-width="1.0"></rect>
<text x="264.0" y="62.0" fill="#000000" font-size="5" text-anchor="start" font-family="monospace">LINE</text>
<text x="312.0" y="52.0" fill="#000000" font-size="6" text-anchor="start" font-family="monospace" font-weight="bold">EDGES</text>
<line x1="350.0" y1="59.0" x2="364.0" y2="59.0" stroke="#000000" stroke-width="1.5" opacity="0.9"></line>
<text x="368.0" y="62.0" fill="#000000" font-size="5" text-anchor="start" font-family="monospace">VI</text>
<line x1="394.0" y1="59.0" x2="408.0" y2="59.0" stroke="#000000" stroke-width="1.5" opacity="0.9" stroke-dasharray="6,2,2,2,2,2"></line>
<text x="412.0" y="62.0" fill="#000000" font-size="5" text-anchor="start" font-family="monospace">TA</text>
<line x1="438.0" y1="59.0" x2="452.0" y2="59.0" stroke="#000000" stroke-width="1.5" opacity="0.9"></line>
<text x="456.0" y="62.0" fill="#000000" font-size="5" text-anchor="start" font-family="monospace">AF</text>
<line x1="482.0" y1="59.0" x2="496.0" y2="59.0" stroke="#000000" stroke-width="1.5" opacity="0.9" stroke-dasharray="4,3"></line>
<text x="500.0" y="62.0" fill="#000000" font-size="5" text-anchor="start" font-family="monospace">AR</text>
<line x1="526.0" y1="59.0" x2="540.0" y2="59.0" stroke="#000000" stroke-width="1.5" opacity="0.9"></line>
<text x="544.0" y="62.0" fill="#000000" font-size="5" text-anchor="start" font-family="monospace">CL</text>
<line x1="570.0" y1="59.0" x2="584.0" y2="59.0" stroke="#000000" stroke-width="1.5" opacity="0.9"></line>
<text x="588.0" y="62.0" fill="#000000" font-size="5" text-anchor="start" font-family="monospace">IM</text>
<text x="70.0" y="72.0" fill="#000000" font-size="6" text-anchor="start" font-family="monospace" font-weight="bold">GUARD</text>
<circle cx="110.0" cy="79.0" r="3.0" fill="none" stroke="#000000" stroke-width="1.0"></circle>
<text x="117.0" y="82.0" fill="#000000" font-size="5" text-anchor="start" font-family="monospace">○ in</text>
<circle cx="150.0" cy="79.0" r="3.0" fill="#000000" stroke-width="0"></circle>
<text x="157.0" y="82.0" fill="#000000" font-size="5" text-anchor="start" font-family="monospace">● out</text>
<text x="200.0" y="72.0" fill="#000000" font-size="6" text-anchor="start" font-family="monospace" font-weight="bold">REG</text>
<text x="230.0" y="82.0" fill="#000000" font-size="5" text-anchor="start" font-family="monospace">→∅↑</text>
<text x="260.0" y="82.0" fill="#000000" font-size="5" text-anchor="start" font-family="monospace">◆→B</text>
<text x="290.0" y="82.0" fill="#000000" font-size="5" text-anchor="start" font-family="monospace">×T→F</text>
<text x="330.0" y="72.0" fill="#000000" font-size="6" text-anchor="start" font-family="monospace" font-weight="bold">PAIRS</text>
<text x="370.0" y="82.0" fill="#000000" font-size="5" text-anchor="start" font-family="monospace">① ②...</text>
<line x1="420.0" y1="79.0" x2="434.0" y2="79.0" stroke="#000000" stroke-width="1.5" opacity="0.6" stroke-dasharray="5,3"></line>
<text x="438.0" y="82.0" fill="#000000" font-size="5" text-anchor="start" font-family="monospace">←×</text>
<line x1="470.0" y1="79.0" x2="484.0" y2="79.0" stroke="#000000" stroke-width="1.5" opacity="0.5"></line>
<text x="488.0" y="82.0" fill="#000000" font-size="5" text-anchor="start" font-family="monospace">loop</text>
</svg>