<svg xmlns="http://www.w3.org/2000/svg" viewBox="0 0 1220 720">
<rect width="1220" height="720" fill="#000000"/>
<defs>
<pattern id="hatch-T" width="4" height="4" patternUnits="userSpaceOnUse"><path d="M2,0 L2,4" stroke="#ffffff" stroke-width="0.8"/></pattern>
<pattern id="hatch-F" width="4" height="4" patternUnits="userSpaceOnUse"><path d="M0,2 L4,2" stroke="#ffffff" stroke-width="0.8"/></pattern>
<pattern id="hatch-B" width="4" height="4" patternUnits="userSpaceOnUse"><path d="M2,0 L2,4 M0,2 L4,2" stroke="#ffffff" stroke-width="0.8"/></pattern>
</defs>
<line x1="0.0" y1="0.0" x2="0.0" y2="720.0" stroke="#333333" stroke-width="0.4" opacity="0.3"></line>
<line x1="40.0" y1="0.0" x2="40.0" y2="720.0" stroke="#333333" stroke-width="0.4" opacity="0.3"></line>
<line x1="80.0" y1="0.0" x2="80.0" y2="720.0" stroke="#333333" stroke-width="0.4" opacity="0.3"></line>
<line x1="120.0" y1="0.0" x2="120.0" y2="720.0" stroke="#333333" stroke-width="0.4" opacity="0.3"></line>
<line x1="160.0" y1="0.0" x2="160.0" y2="720.0" stroke="#333333" stroke-width="0.4" opacity="0.3"></line>
<line x1="200.0" y1="0.0" x2="200.0" y2="720.0" stroke="#333333" stroke-width="0.4" opacity="0.3"></line>
<line x1="240.0" y1="0.0" x2="240.0" y2="720.0" stroke="#333333" stroke-width="0.4" opacity="0.3"></line>
<line x1="280.0" y1="0.0" x2="280.0" y2="720.0" stroke="#333333" stroke-width="0.4" opacity="0.3"></line>
<line x1="320.0" y1="0.0" x2="320.0" y2="720.0" stroke="#333333" stroke-width="0.4" opacity="0.3"></line>
<line x1="360.0" y1="0.0" x2="360.0" y2="720.0" stroke="#333333" stroke-width="0.4" opacity="0.3"></line>
<line x1="400.0" y1="0.0" x2="400.0" y2="720.0" stroke="#333333" stroke-width="0.4" opacity="0.3"></line>
<line x1="440.0" y1="0.0" x2="440.0" y2="720.0" stroke="#333333" stroke-width="0.4" opacity="0.3"></line>
<line x1="480.0" y1="0.0" x2="480.0" y2="720.0" stroke="#333333" stroke-width="0.4" opacity="0.3"></line>
<line x1="520.0" y1="0.0" x2="520.0" y2="720.0" stroke="#333333" stroke-width="0.4" opacity="0.3"></line>
<line x1="560.0" y1="0.0" x2="560.0" y2="720.0" stroke="#333333" stroke-width="0.4" opacity="0.3"></line>
<line x1="600.0" y1="0.0" x2="600.0" y2="720.0" stroke="#333333" stroke-width="0.4" opacity="0.3"></line>
<line x1="640.0" y1="0.0" x2="640.0" y2="720.0" stroke="#333333" stroke-width="0.4" opacity="0.3"></line>
<line x1="680.0" y1="0.0" x2="680.0" y2="720.0" stroke="#333333" stroke-width="0.4" opacity="0.3"></line>
<line x1="720.0" y1="0.0" x2="720.0" y2="720.0" stroke="#333333" stroke-width="0.4" opacity="0.3"></line>
<line x1="760.0" y1="0.0" x2="760.0" y2="720.0" stroke="#333333" stroke-width="0.4" opacity="0.3"></line>
<line x1="800.0" y1="0.0" x2="800.0" y2="720.0" stroke="#333333" stroke-width="0.4" opacity="0.3"></line>
<line x1="840.0" y1="0.0" x2="840.0" y2="720.0" stroke="#333333" stroke-width="0.4" opacity="0.3"></line>
<line x1="880.0" y1="0.0" x2="880.0" y2="720.0" stroke="#333333" stroke-width="0.4" opacity="0.3"></line>
<line x1="920.0" y1="0.0" x2="920.0" y2="720.0" stroke="#333333" stroke-width="0.4" opacity="0.3"></line>
<line x1="960.0" y1="0.0" x2="960.0" y2="720.0" stroke="#333333" stroke-width="0.4" opacity="0.3"></line>
<line x1="1000.0" y1="0.0" x2="1000.0" y2="720.0" stroke="#333333" stroke-width="0.4" opacity="0.3"></line>
<line x1="1040.0" y1="0.0" x2="1040.0" y2="720.0" stroke="#333333" stroke-width="0.4" opacity="0.3"></line>
<line x1="1080.0" y1="0.0" x2="1080.0" y2="720.0" stroke="#333333" stroke-width="0.4" opacity="0.3"></line>
<line x1="1120.0" y1="0.0" x2="1120.0" y2="720.0" stroke="#333333" stroke-width="0.4" opacity="0.3"></line>
<line x1="1160.0" y1="0.0" x2="1160.0" y2="720.0" stroke="#333333" stroke-width="0.4" opacity="0.3"></line>
<line x1="1200.0" y1="0.0" x2="1200.0" y2="720.0" stroke="#333333" stroke-width="0.4" opacity="0.3"></line>
<line x1="0.0" y1="0.0" x2="1220.0" y2="0.0" stroke="#333333" stroke-width="0.4" opacity="0.3"></line>
<line x1="0.0" y1="40.0" x2="1220.0" y2="40.0" stroke="#333333" stroke-width="0.4" opacity="0.3"></line>
<line x1="0.0" y1="80.0" x2="1220.0" y2="80.0" stroke="#333333" stroke-width="0.4" opacity="0.3"></line>
<line x1="0.0" y1="120.0" x2="1220.0" y2="120.0" stroke="#333333" stroke-width="0.4" opacity="0.3"></line>
<line x1="0.0" y1="160.0" x2="1220.0" y2="160.0" stroke="#333333" stroke-width="0.4" opacity="0.3"></line>
<line x1="0.0" y1="200.0" x2="1220.0" y2="200.0" stroke="#333333" stroke-width="0.4" opacity="0.3"></line>
<line x1="0.0" y1="240.0" x2="1220.0" y2="240.0" stroke="#333333" stroke-width="0.4" opacity="0.3"></line>
<line x1="0.0" y1="280.0" x2="1220.0" y2="280.0" stroke="#333333" stroke-width="0.4" opacity="0.3"></line>
<line x1="0.0" y1="320.0" x2="1220.0" y2="320.0" stroke="#333333" stroke-width="0.4" opacity="0.3"></line>
<line x1="0.0" y1="360.0" x2="1220.0" y2="360.0" stroke="#333333" stroke-width="0.4" opacity="0.3"></line>
<line x1="0.0" y1="400.0" x2="1220.0" y2="400.0" stroke="#333333" stroke-width="0.4" opacity="0.3"></line>
<line x1="0.0" y1="440.0" x2="1220.0" y2="440.0" stroke="#333333" stroke-width="0.4" opacity="0.3"></line>
<line x1="0.0" y1="480.0" x2="1220.0" y2="480.0" stroke="#333333" stroke-width="0.4" opacity="0.3"></line>
<line x1="0.0" y1="520.0" x2="1220.0" y2="520.0" stroke="#333333" stroke-width="0.4" opacity="0.3"></line>
<line x1="0.0" y1="560.0" x2="1220.0" y2="560.0" stroke="#333333" stroke-width="0.4" opacity="0.3"></line>
<line x1="0.0" y1="600.0" x2="1220.0" y2="600.0" stroke="#333333" stroke-width="0.4" opacity="0.3"></line>
<line x1="0.0" y1="640.0" x2="1220.0" y2="640.0" stroke="#333333" stroke-width="0.4" opacity="0.3"></line>
<line x1="0.0" y1="680.0" x2="1220.0" y2="680.0" stroke="#333333" stroke-width="0.4" opacity="0.3"></line>
<text x="610.0" y="26.0" fill="#ffffff" font-size="13" text-anchor="middle" font-family="monospace" font-weight="bold">test trilattice</text>
<text x="610.0" y="41.0" fill="#ffffff" font-size="7" text-anchor="middle" font-family="monospace">Test: VINIT AFWD FSPLIT EVALT EVALF ENGAGR FFUSE IFIX TANCH</text>
<text x="66.0" y="190.0" fill="#ffffff" font-size="7" text-anchor="start" font-family="monospace">T-lane</text>
<text x="66.0" y="135.0" fill="#ffffff" font-size="7" text-anchor="start" font-family="monospace">T[d1]</text>
<text x="66.0" y="470.0" fill="#ffffff" font-size="7" text-anchor="start" font-family="monospace">F-lane</text>
<text x="66.0" y="525.0" fill="#ffffff" font-size="7" text-anchor="start" font-family="monospace">F[d1]</text>
<text x="66.0" y="330.0" fill="#ffffff" font-size="7" text-anchor="start" font-family="monospace">main</text>
<text x="66.0" y="258.0" fill="#ffffff" font-size="6" text-anchor="start" font-family="monospace">I-lane</text>
<text x="140.0" y="258.0" fill="#ffffff" font-size="4" text-anchor="start" font-family="monospace">≤_i (information: x⊆y)</text>
<line x1="66.0" y1="274.0" x2="1200.0" y2="274.0" stroke="#ffffff" stroke-width="0.6" opacity="0.5"></line>
<text x="66.0" y="398.0" fill="#ffffff" font-size="6" text-anchor="start" font-family="monospace">C-lane</text>
<text x="140.0" y="398.0" fill="#ffffff" font-size="4" text-anchor="start" font-family="monospace">≤_c (constructivity: T,F↑ t,f↓)</text>
<line x1="66.0" y1="414.0" x2="1200.0" y2="414.0" stroke="#ffffff" stroke-width="0.6" opacity="0.5"></line>
<text x="123.3" y="270.0" fill="#ffffff" font-size="4.5" text-anchor="middle" font-family="monospace">N</text>
<text x="123.3" y="410.0" fill="#ffffff" font-size="4.5" text-anchor="middle" font-family="monospace">·|·</text>
<text x="230.0" y="270.0" fill="#ffffff" font-size="4.5" text-anchor="middle" font-family="monospace">T</text>
<text x="230.0" y="410.0" fill="#ffffff" font-size="4.5" text-anchor="middle" font-family="monospace">T|·</text>
<text x="336.7" y="270.0" fill="#ffffff" font-size="4.5" text-anchor="middle" font-family="monospace">T</text>
<text x="336.7" y="410.0" fill="#ffffff" font-size="4.5" text-anchor="middle" font-family="monospace">T|·</text>
<text x="443.3" y="270.0" fill="#ffffff" font-size="4.5" text-anchor="middle" font-family="monospace">Tt</text>
<text x="443.3" y="410.0" fill="#ffffff" font-size="4.5" text-anchor="middle" font-family="monospace">T|t</text>
<text x="550.0" y="270.0" fill="#ffffff" font-size="4.5" text-anchor="middle" font-family="monospace">TtF</text>
<text x="550.0" y="410.0" fill="#ffffff" font-size="4.5" text-anchor="middle" font-family="monospace">TF|t</text>
<text x="656.7" y="270.0" fill="#ffffff" font-size="4.5" text-anchor="middle" font-family="monospace">TtFtf</text>
<text x="656.7" y="410.0" fill="#ffffff" font-size="4.5" text-anchor="middle" font-family="monospace">TF|tf</text>
<text x="763.3" y="270.0" fill="#ffffff" font-size="4.5" text-anchor="middle" font-family="monospace">TtFtf</text>
<text x="763.3" y="410.0" fill="#ffffff" font-size="4.5" text-anchor="middle" font-family="monospace">TF|tf</text>
<text x="870.0" y="270.0" fill="#ffffff" font-size="4.5" text-anchor="middle" font-family="monospace">A</text>
<text x="870.0" y="410.0" fill="#ffffff" font-size="4.5" text-anchor="middle" font-family="monospace">·|·</text>
<text x="976.7" y="270.0" fill="#ffffff" font-size="4.5" text-anchor="middle" font-family="monospace">A</text>
<text x="976.7" y="410.0" fill="#ffffff" font-size="4.5" text-anchor="middle" font-family="monospace">·|·</text>
<line x1="867.5" y1="105.0" x2="867.5" y2="555.0" stroke="#ffffff" stroke-width="1.0" opacity="1.0" stroke-dasharray="4,3"></line>
<line x1="872.5" y1="105.0" x2="872.5" y2="555.0" stroke="#ffffff" stroke-width="1.0" opacity="1.0" stroke-dasharray="4,3"></line>
<text x="870.0" y="105.0" fill="#ffffff" font-size="8" text-anchor="middle" font-family="monospace">×</text>
<text x="870.0" y="555.0" fill="#ffffff" font-size="8" text-anchor="middle" font-family="monospace">×</text>
<text x="870.0" y="98.0" fill="#ffffff" font-size="6" text-anchor="middle" font-family="monospace">IFIX</text>
<line x1="336.7" y1="310.0" x2="336.7" y2="292.0" stroke="#ffffff" stroke-width="0.6" opacity="0.8" stroke-dasharray="3,3"></line>
<line x1="336.7" y1="292.0" x2="763.3" y2="292.0" stroke="#ffffff" stroke-width="0.6" opacity="0.8" stroke-dasharray="3,3"></line>
<line x1="763.3" y1="292.0" x2="763.3" y2="310.0" stroke="#ffffff" stroke-width="0.6" opacity="0.8" stroke-dasharray="3,3"></line>
<circle cx="550.0" cy="292.0" r="6" fill="#000000" stroke="#ffffff" stroke-width="0.8"></circle>
<text x="550.0" y="295.0" fill="#ffffff" font-size="7" text-anchor="middle" font-family="monospace">1</text>
<line x1="349.6" y1="306.3" x2="430.4" y2="158.7" stroke="#ffffff" stroke-width="1.5" opacity="1.0"></line>
<polygon points="430.4,158.7 429.3,167.2 423.7,164.2" fill="#ffffff"></polygon>
<circle cx="390.0" cy="232.5" r="5" fill="#000000" stroke="#ffffff" stroke-width="0.6"></circle>
<text x="390.0" y="235.5" fill="#ffffff" font-size="7" text-anchor="middle" font-family="monospace">◇</text>
<text x="390.0" y="224.5" fill="#ffffff" font-size="6" text-anchor="middle" font-family="monospace">↑→↑</text>
<line x1="466.4" y1="149.0" x2="740.3" y2="316.0" stroke="#ffffff" stroke-width="1.5" opacity="1.0"></line>
<polygon points="740.3,316.0 731.8,314.5 735.1,309.1" fill="#ffffff"></polygon>
<circle cx="603.3" cy="232.5" r="5" fill="#000000" stroke="#ffffff" stroke-width="0.6"></circle>
<text x="603.3" y="235.5" fill="#ffffff" font-size="7" text-anchor="middle" font-family="monospace">+</text>
<text x="603.3" y="224.5" fill="#ffffff" font-size="6" text-anchor="middle" font-family="monospace">↑→↑</text>
<line x1="356.6" y1="348.2" x2="530.1" y2="506.8" stroke="#ffffff" stroke-width="1.5" opacity="1.0"></line>
<polygon points="530.1,506.8 522.0,503.7 526.3,499.0" fill="#ffffff"></polygon>
<circle cx="443.3" cy="427.5" r="5" fill="#000000" stroke="#ffffff" stroke-width="0.6"></circle>
<text x="443.3" y="430.5" fill="#ffffff" font-size="7" text-anchor="middle" font-family="monospace">◇</text>
<text x="443.3" y="419.5" fill="#ffffff" font-size="6" text-anchor="middle" font-family="monospace">↑→↑↓</text>
<line x1="577.0" y1="525.0" x2="629.7" y2="525.0" stroke="#ffffff" stroke-width="1.5" opacity="1.0"></line>
<polygon points="629.7,525.0 621.7,528.2 621.7,521.8" fill="#ffffff"></polygon>
<circle cx="603.3" cy="525.0" r="5" fill="#000000" stroke="#ffffff" stroke-width="0.6"></circle>
<text x="603.3" y="528.0" fill="#ffffff" font-size="7" text-anchor="middle" font-family="monospace">×</text>
<text x="603.3" y="517.0" fill="#ffffff" font-size="6" text-anchor="middle" font-family="monospace">↑↓→↑↓</text>
<polyline points="673.1,503.2 670.0,492.4 680.8,489.2 677.6,478.3 688.5,475.2 685.3,464.3 696.2,461.1 693.0,450.3 703.8,447.1 700.7,436.2 711.5,433.0 708.3,422.2 719.2,419.0 716.0,408.2 726.9,405.0 723.7,394.1 734.6,390.9 731.4,380.1 742.2,376.9 739.1,366.0 749.9,362.9 746.7,352.0 750.4,353.7" fill="none" stroke="#ffffff" stroke-width="1.5"></polyline>
<polygon points="750.4,353.7 749.3,362.2 743.7,359.2" fill="#ffffff"></polygon>
<text x="710.0" y="419.5" fill="#ffffff" font-size="6" text-anchor="middle" font-family="monospace">↑↓→↑</text>
<line x1="150.3" y1="330.0" x2="203.0" y2="330.0" stroke="#ffffff" stroke-width="2.0" opacity="1.0"></line>
<polyline points="203.0,330.0 195.0,333.2 195.0,326.8" fill="none" stroke="#ffffff" stroke-width="1.0"></polyline>
<text x="176.7" y="322.0" fill="#ffffff" font-size="6" text-anchor="middle" font-family="monospace">↑</text>
<line x1="257.0" y1="330.0" x2="309.7" y2="330.0" stroke="#ffffff" stroke-width="2.5" opacity="1.0"></line>
<polygon points="309.7,330.0 301.7,333.2 301.7,326.8" fill="#ffffff"></polygon>
<text x="283.3" y="322.0" fill="#ffffff" font-size="6" text-anchor="middle" font-family="monospace">↑→↑</text>
<line x1="897.0" y1="330.0" x2="949.7" y2="330.0" stroke="#ffffff" stroke-width="2.0" opacity="1.0" stroke-dasharray="2,2"></line>
<polygon points="949.7,330.0 941.7,333.2 941.7,326.8" fill="#ffffff"></polygon>
<text x="923.3" y="322.0" fill="#ffffff" font-size="6" text-anchor="middle" font-family="monospace">↑→↑</text>
<line x1="790.3" y1="330.0" x2="843.0" y2="330.0" stroke="#ffffff" stroke-width="1.5" opacity="1.0"></line>
<polygon points="843.0,330.0 835.0,333.2 835.0,326.8" fill="#ffffff"></polygon>
<circle cx="816.7" cy="330.0" r="5" fill="#000000" stroke="#ffffff" stroke-width="0.6"></circle>
<text x="816.7" y="333.0" fill="#ffffff" font-size="7" text-anchor="middle" font-family="monospace">●</text>
<text x="816.7" y="322.0" fill="#ffffff" font-size="6" text-anchor="middle" font-family="monospace">↑→↑</text>
<circle fill="none" stroke="#ffffff" stroke-width="1.3" cx="123.3" cy="330.0" r="20.0"></circle>
<circle cx="99.3" cy="330.0" r="2.5" fill="#000000" stroke="#ffffff" stroke-width="0.8"></circle>
<circle cx="147.3" cy="330.0" r="2.5" fill="#ffffff"></circle>
<text x="123.3" y="304.0" fill="#ffffff" font-size="9" text-anchor="middle" font-family="monospace" font-weight="bold">VI</text>
<text x="123.3" y="362.0" fill="#ffffff" font-size="5" text-anchor="middle" font-family="monospace">VINIT</text>
<circle fill="none" stroke="#ffffff" stroke-width="1.3" cx="230.0" cy="330.0" r="20.0"></circle>
<circle cx="230.0" cy="330.0" r="8" fill="url(#hatch-T)" stroke="#ffffff" stroke-width="0.6"></circle>
<circle cx="206.0" cy="330.0" r="2.5" fill="#000000" stroke="#ffffff" stroke-width="0.8"></circle>
<circle cx="254.0" cy="330.0" r="2.5" fill="#ffffff"></circle>
<text x="230.0" y="304.0" fill="#ffffff" font-size="9" text-anchor="middle" font-family="monospace" font-weight="bold">AF</text>
<text x="230.0" y="362.0" fill="#ffffff" font-size="5" text-anchor="middle" font-family="monospace">AFWD</text>
<polygon fill="none" stroke="#ffffff" stroke-width="1.3" points="336.6666666666667,310.0 356.7,330 336.6666666666667,350.0 316.7,330"></polygon>
<circle cx="336.7" cy="330.0" r="8" fill="url(#hatch-T)" stroke="#ffffff" stroke-width="0.6"></circle>
<circle cx="312.7" cy="330.0" r="2.5" fill="#000000" stroke="#ffffff" stroke-width="0.8"></circle>
<circle cx="360.7" cy="330.0" r="2.5" fill="#ffffff"></circle>
<text x="336.7" y="304.0" fill="#ffffff" font-size="9" text-anchor="middle" font-family="monospace" font-weight="bold">FS</text>
<text x="336.7" y="362.0" fill="#ffffff" font-size="5" text-anchor="middle" font-family="monospace">FSPLIT</text>
<polygon fill="none" stroke="#ffffff" stroke-width="1.3" points="460.7,145.0 443.3,155.0 426.0,145.0 426.0,125.0 443.3,115.0 460.7,125.0"></polygon>
<circle cx="443.3" cy="135.0" r="8" fill="url(#hatch-T)" stroke="#ffffff" stroke-width="0.6"></circle>
<circle cx="419.3" cy="135.0" r="2.5" fill="#000000" stroke="#ffffff" stroke-width="0.8"></circle>
<circle cx="467.3" cy="135.0" r="2.5" fill="#ffffff"></circle>
<text x="443.3" y="109.0" fill="#ffffff" font-size="9" text-anchor="middle" font-family="monospace" font-weight="bold">ET</text>
<text x="443.3" y="167.0" fill="#ffffff" font-size="5" text-anchor="middle" font-family="monospace">EVALT</text>
<polygon fill="none" stroke="#ffffff" stroke-width="1.3" points="567.3,535.0 550.0,545.0 532.7,535.0 532.7,515.0 550.0,505.0 567.3,515.0"></polygon>
<circle cx="550.0" cy="525.0" r="8" fill="url(#hatch-B)" stroke="#ffffff" stroke-width="0.6"></circle>
<circle cx="526.0" cy="525.0" r="2.5" fill="#000000" stroke="#ffffff" stroke-width="0.8"></circle>
<circle cx="574.0" cy="525.0" r="2.5" fill="#ffffff"></circle>
<text x="550.0" y="499.0" fill="#ffffff" font-size="9" text-anchor="middle" font-family="monospace" font-weight="bold">EF</text>
<text x="550.0" y="557.0" fill="#ffffff" font-size="5" text-anchor="middle" font-family="monospace">EVALF</text>
<polygon fill="none" stroke="#ffffff" stroke-width="1.3" points="674.0,535.0 656.7,545.0 639.3,535.0 639.3,515.0 656.7,505.0 674.0,515.0"></polygon>
<circle cx="656.7" cy="525.0" r="8" fill="url(#hatch-B)" stroke="#ffffff" stroke-width="0.6"></circle>
<circle cx="632.7" cy="525.0" r="2.5" fill="#000000" stroke="#ffffff" stroke-width="0.8"></circle>
<circle cx="680.7" cy="525.0" r="2.5" fill="#ffffff"></circle>
<text x="656.7" y="499.0" fill="#ffffff" font-size="9" text-anchor="middle" font-family="monospace" font-weight="bold">EG</text>
<text x="656.7" y="557.0" fill="#ffffff" font-size="5" text-anchor="middle" font-family="monospace">ENGAGR</text>
<polygon fill="none" stroke="#ffffff" stroke-width="1.3" points="763.3333333333334,310.0 783.3,330 763.3333333333334,350.0 743.3,330"></polygon>
<circle cx="763.3" cy="330.0" r="8" fill="url(#hatch-T)" stroke="#ffffff" stroke-width="0.6"></circle>
<circle cx="739.3" cy="330.0" r="2.5" fill="#000000" stroke="#ffffff" stroke-width="0.8"></circle>
<circle cx="787.3" cy="330.0" r="2.5" fill="#ffffff"></circle>
<text x="763.3" y="304.0" fill="#ffffff" font-size="9" text-anchor="middle" font-family="monospace" font-weight="bold">FF</text>
<text x="763.3" y="362.0" fill="#ffffff" font-size="5" text-anchor="middle" font-family="monospace">FFUSE</text>
<rect fill="none" stroke="#ffffff" stroke-width="1.3" x="850.0" y="310.0" width="40.0" height="40.0"></rect>
<circle cx="870.0" cy="330.0" r="8" fill="url(#hatch-T)" stroke="#ffffff" stroke-width="0.6"></circle>
<circle cx="846.0" cy="330.0" r="2.5" fill="#000000" stroke="#ffffff" stroke-width="0.8"></circle>
<circle cx="894.0" cy="330.0" r="2.5" fill="#ffffff"></circle>
<text x="870.0" y="304.0" fill="#ffffff" font-size="9" text-anchor="middle" font-family="monospace" font-weight="bold">IX</text>
<text x="870.0" y="362.0" fill="#ffffff" font-size="5" text-anchor="middle" font-family="monospace">IFIX</text>
<circle fill="none" stroke="#ffffff" stroke-width="1.3" cx="976.7" cy="330.0" r="20.0"></circle>
<circle cx="976.7" cy="330.0" r="8" fill="url(#hatch-T)" stroke="#ffffff" stroke-width="0.6"></circle>
<circle cx="952.7" cy="330.0" r="2.5" fill="#000000" stroke="#ffffff" stroke-width="0.8"></circle>
<circle cx="1000.7" cy="330.0" r="2.5" fill="#ffffff"></circle>
<text x="976.7" y="304.0" fill="#ffffff" font-size="9" text-anchor="middle" font-family="monospace" font-weight="bold">TA</text>
<text x="976.7" y="362.0" fill="#ffffff" font-size="5" text-anchor="middle" font-family="monospace">TANCH</text>
<text x="14.0" y="72.0" fill="#ffffff" font-size="6" text-anchor="start" font-family="monospace" font-weight="bold">EDGES</text>
<line x1="14.0" y1="82.0" x2="36.0" y2="82.0" stroke="#ffffff" stroke-width="1.5" opacity="0.7"></line>
<text x="42.0" y="84.0" fill="#ffffff" font-size="5" text-anchor="start" font-family="monospace">VI</text>
<line x1="14.0" y1="91.5" x2="36.0" y2="91.5" stroke="#ffffff" stroke-width="1.5" opacity="0.7" stroke-dasharray="5,2,1,2,1,2"></line>
<text x="42.0" y="93.5" fill="#ffffff" font-size="5" text-anchor="start" font-family="monospace">TA</text>
<line x1="14.0" y1="101.0" x2="36.0" y2="101.0" stroke="#ffffff" stroke-width="2.0" opacity="0.7"></line>
<text x="42.0" y="103.0" fill="#ffffff" font-size="5" text-anchor="start" font-family="monospace">AF</text>
<line x1="14.0" y1="110.5" x2="36.0" y2="110.5" stroke="#ffffff" stroke-width="1.5" opacity="0.7" stroke-dasharray="6,4"></line>
<text x="42.0" y="112.5" fill="#ffffff" font-size="5" text-anchor="start" font-family="monospace">AR</text>
<line x1="14.0" y1="119.0" x2="36.0" y2="119.0" stroke="#ffffff" stroke-width="1.0" opacity="0.7"></line>
<line x1="14.0" y1="121.0" x2="36.0" y2="121.0" stroke="#ffffff" stroke-width="1.0" opacity="0.7"></line>
<text x="42.0" y="122.0" fill="#ffffff" font-size="5" text-anchor="start" font-family="monospace">CL</text>
<line x1="14.0" y1="129.5" x2="36.0" y2="129.5" stroke="#ffffff" stroke-width="1.5" opacity="0.7"></line>
<text x="42.0" y="131.5" fill="#ffffff" font-size="5" text-anchor="start" font-family="monospace">IM</text>
<line x1="14.0" y1="139.0" x2="36.0" y2="139.0" stroke="#ffffff" stroke-width="1.5" opacity="0.7"></line>
<text x="42.0" y="141.0" fill="#ffffff" font-size="5" text-anchor="start" font-family="monospace">FS</text>
<line x1="14.0" y1="148.5" x2="36.0" y2="148.5" stroke="#ffffff" stroke-width="1.5" opacity="0.7"></line>
<text x="42.0" y="150.5" fill="#ffffff" font-size="5" text-anchor="start" font-family="monospace">FF</text>
<line x1="14.0" y1="158.0" x2="36.0" y2="158.0" stroke="#ffffff" stroke-width="1.5" opacity="0.7"></line>
<text x="42.0" y="160.0" fill="#ffffff" font-size="5" text-anchor="start" font-family="monospace">ET</text>
<line x1="14.0" y1="167.5" x2="36.0" y2="167.5" stroke="#ffffff" stroke-width="1.5" opacity="0.7"></line>
<text x="42.0" y="169.5" fill="#ffffff" font-size="5" text-anchor="start" font-family="monospace">EF</text>
<polyline points="14.0,179.0 18.0,175.0 22.0,179.0 26.0,175.0 30.0,179.0 34.0,175.0 36.0,177.0" fill="none" stroke="#ffffff" stroke-width="1.0"></polyline>
<text x="42.0" y="179.0" fill="#ffffff" font-size="5" text-anchor="start" font-family="monospace">EG</text>
<line x1="14.0" y1="186.5" x2="36.0" y2="186.5" stroke="#ffffff" stroke-width="1.5" opacity="0.7" stroke-dasharray="2,2"></line>
<text x="42.0" y="188.5" fill="#ffffff" font-size="5" text-anchor="start" font-family="monospace">IX</text>
<text x="14.0" y="195.0" fill="#ffffff" font-size="6" text-anchor="start" font-family="monospace" font-weight="bold">GUARD</text>
<circle cx="17" cy="206" r="2.5" fill="#000000" stroke="#ffffff" stroke-width="0.8"></circle>
<text x="24.0" y="208.0" fill="#ffffff" font-size="5" text-anchor="start" font-family="monospace">in</text>
<circle cx="17" cy="216" r="2.5" fill="#ffffff"></circle>
<text x="24.0" y="218.0" fill="#ffffff" font-size="5" text-anchor="start" font-family="monospace">out</text>
<text x="14.0" y="231.0" fill="#ffffff" font-size="6" text-anchor="start" font-family="monospace" font-weight="bold">NODES</text>
<circle fill="none" stroke="#ffffff" stroke-width="1.0" cx="18.0" cy="246.0" r="4.0"></circle>
<text x="28.0" y="248.0" fill="#ffffff" font-size="5" text-anchor="start" font-family="monospace">LOGI</text>
<polygon fill="none" stroke="#ffffff" stroke-width="1.0" points="18,254.0 22.0,258 18,262.0 14.0,258"></polygon>
<text x="28.0" y="260.0" fill="#ffffff" font-size="5" text-anchor="start" font-family="monospace">FROB</text>
<polygon fill="none" stroke="#ffffff" stroke-width="1.0" points="21.5,272.0 18.0,274.0 14.5,272.0 14.5,268.0 18.0,266.0 21.5,268.0"></polygon>
<text x="28.0" y="272.0" fill="#ffffff" font-size="5" text-anchor="start" font-family="monospace">DIAL</text>
<rect fill="none" stroke="#ffffff" stroke-width="1.0" x="14.0" y="278.0" width="8.0" height="8.0"></rect>
<text x="28.0" y="284.0" fill="#ffffff" font-size="5" text-anchor="start" font-family="monospace">LINE</text>
<text x="14.0" y="294.0" fill="#ffffff" font-size="6" text-anchor="start" font-family="monospace" font-weight="bold">PAIRS</text>
<circle cx="18" cy="306" r="5" fill="#000000" stroke="#ffffff" stroke-width="0.8"></circle>
<text x="18.0" y="309.0" fill="#ffffff" font-size="6" text-anchor="middle" font-family="monospace">1</text>
<text x="28.0" y="308.0" fill="#ffffff" font-size="5" text-anchor="start" font-family="monospace">pair</text>
<text x="14.0" y="324.0" fill="#ffffff" font-size="6" text-anchor="start" font-family="monospace" font-weight="bold">REG Δ</text>
<text x="14.0" y="336.0" fill="#ffffff" font-size="5" text-anchor="start" font-family="monospace">↑ T</text>
<text x="14.0" y="345.0" fill="#ffffff" font-size="5" text-anchor="start" font-family="monospace">↓ F</text>
<text x="14.0" y="354.0" fill="#ffffff" font-size="5" text-anchor="start" font-family="monospace">↑↓ B</text>
<text x="14.0" y="380.0" fill="#ffffff" font-size="6" text-anchor="start" font-family="monospace" font-weight="bold">SIXTEEN_3</text>
<text x="14.0" y="390.0" fill="#ffffff" font-size="5" text-anchor="start" font-family="monospace">≤_i (info.)</text>
<text x="14.0" y="399.0" fill="#ffffff" font-size="5" text-anchor="start" font-family="monospace">≤_t (truth)</text>
<text x="14.0" y="408.0" fill="#ffffff" font-size="5" text-anchor="start" font-family="monospace">≤_c (constr.)</text>
<text x="14.0" y="422.0" fill="#ffffff" font-size="6" text-anchor="start" font-family="monospace" font-weight="bold">16₃ REG</text>
<circle cx="17" cy="432" r="2.5" fill="#000000" stroke="#ffffff" stroke-width="0.8"></circle>
<text x="24.0" y="434.0" fill="#ffffff" font-size="5" text-anchor="start" font-family="monospace">∅ void</text>
<circle cx="17" cy="442" r="2.5" fill="#ffffff"></circle>
<text x="24.0" y="444.0" fill="#ffffff" font-size="5" text-anchor="start" font-family="monospace">A full</text>
<text x="14.0" y="453.0" fill="#ffffff" font-size="4" text-anchor="start" font-family="monospace">T prov.</text>
<text x="14.0" y="460.0" fill="#ffffff" font-size="4" text-anchor="start" font-family="monospace">t accep.</text>
<text x="610.0" y="708.0" fill="#ffffff" font-size="7" text-anchor="middle" font-family="monospace">Ouroboricity: O₁</text>
<path d="M 150.3,330.0 L 150.3,10.0 L 949.7,10.0 L 949.7,330.0" fill="none" stroke="#ffffff" stroke-width="1.2"></path>
<polygon points="949.7,330.0 946.5,322.0 952.9,322.0" fill="#ffffff"></polygon>
<text x="550.0" y="12.0" fill="#ffffff" font-size="7" text-anchor="middle" font-family="monospace">O₁</text>
<rect x="880.0" y="625.0" width="320.0" height="80.0" fill="#000000" stroke="#ffffff" stroke-width="0.5" opacity="0.9"></rect>
<text x="886.0" y="635.0" fill="#ffffff" font-size="6" text-anchor="start" font-family="monospace" font-weight="bold">SIXTEEN₃ TRILATTICE</text>
<text x="886.0" y="647.0" fill="#ffffff" font-size="4.5" text-anchor="start" font-family="monospace">16₃ reg: N → T → T → Tt → TtF → TtFtf → TtFtf → A → A</text>
<text x="886.0" y="659.0" fill="#ffffff" font-size="4.5" text-anchor="start" font-family="monospace">Verdict: T  —  Tri-ancestral reconnection over a transformed obje</text>
<text x="886.0" y="671.0" fill="#ffffff" font-size="4.5" text-anchor="start" font-family="monospace">Word: ⊢>∈+×⊞∋¬⊣</text>
<text x="886.0" y="683.0" fill="#ffffff" font-size="4.5" text-anchor="start" font-family="monospace">Walk: OPEN</text>
<text x="1040.0" y="647.0" fill="#ffffff" font-size="4" text-anchor="start" font-family="monospace">≤_i: information (subset)</text>
<text x="1040.0" y="659.0" fill="#ffffff" font-size="4" text-anchor="start" font-family="monospace">≤_t: truth (T,t↑ F,f↓)</text>
<text x="1040.0" y="671.0" fill="#ffffff" font-size="4" text-anchor="start" font-family="monospace">≤_c: constructivity (T,F↑ t,f↓)</text>
</svg>