<svg xmlns="http://www.w3.org/2000/svg" viewBox="0 0 1220 720">
<rect width="1220" height="720" fill="#000000"/>
<defs>
<pattern id="hatch-T" width="4" height="4" patternUnits="userSpaceOnUse"><path d="M2,0 L2,4" stroke="#ffffff" stroke-width="0.8"/></pattern>
<pattern id="hatch-F" width="4" height="4" patternUnits="userSpaceOnUse"><path d="M0,2 L4,2" stroke="#ffffff" stroke-width="0.8"/></pattern>
<pattern id="hatch-B" width="4" height="4" patternUnits="userSpaceOnUse"><path d="M2,0 L2,4 M0,2 L4,2" stroke="#ffffff" stroke-width="0.8"/></pattern>
</defs>
<line x1="0.0" y1="0.0" x2="0.0" y2="720.0" stroke="#333333" stroke-width="0.4" opacity="0.3"></line>
<line x1="40.0" y1="0.0" x2="40.0" y2="720.0" stroke="#333333" stroke-width="0.4" opacity="0.3"></line>
<line x1="80.0" y1="0.0" x2="80.0" y2="720.0" stroke="#333333" stroke-width="0.4" opacity="0.3"></line>
<line x1="120.0" y1="0.0" x2="120.0" y2="720.0" stroke="#333333" stroke-width="0.4" opacity="0.3"></line>
<line x1="160.0" y1="0.0" x2="160.0" y2="720.0" stroke="#333333" stroke-width="0.4" opacity="0.3"></line>
<line x1="200.0" y1="0.0" x2="200.0" y2="720.0" stroke="#333333" stroke-width="0.4" opacity="0.3"></line>
<line x1="240.0" y1="0.0" x2="240.0" y2="720.0" stroke="#333333" stroke-width="0.4" opacity="0.3"></line>
<line x1="280.0" y1="0.0" x2="280.0" y2="720.0" stroke="#333333" stroke-width="0.4" opacity="0.3"></line>
<line x1="320.0" y1="0.0" x2="320.0" y2="720.0" stroke="#333333" stroke-width="0.4" opacity="0.3"></line>
<line x1="360.0" y1="0.0" x2="360.0" y2="720.0" stroke="#333333" stroke-width="0.4" opacity="0.3"></line>
<line x1="400.0" y1="0.0" x2="400.0" y2="720.0" stroke="#333333" stroke-width="0.4" opacity="0.3"></line>
<line x1="440.0" y1="0.0" x2="440.0" y2="720.0" stroke="#333333" stroke-width="0.4" opacity="0.3"></line>
<line x1="480.0" y1="0.0" x2="480.0" y2="720.0" stroke="#333333" stroke-width="0.4" opacity="0.3"></line>
<line x1="520.0" y1="0.0" x2="520.0" y2="720.0" stroke="#333333" stroke-width="0.4" opacity="0.3"></line>
<line x1="560.0" y1="0.0" x2="560.0" y2="720.0" stroke="#333333" stroke-width="0.4" opacity="0.3"></line>
<line x1="600.0" y1="0.0" x2="600.0" y2="720.0" stroke="#333333" stroke-width="0.4" opacity="0.3"></line>
<line x1="640.0" y1="0.0" x2="640.0" y2="720.0" stroke="#333333" stroke-width="0.4" opacity="0.3"></line>
<line x1="680.0" y1="0.0" x2="680.0" y2="720.0" stroke="#333333" stroke-width="0.4" opacity="0.3"></line>
<line x1="720.0" y1="0.0" x2="720.0" y2="720.0" stroke="#333333" stroke-width="0.4" opacity="0.3"></line>
<line x1="760.0" y1="0.0" x2="760.0" y2="720.0" stroke="#333333" stroke-width="0.4" opacity="0.3"></line>
<line x1="800.0" y1="0.0" x2="800.0" y2="720.0" stroke="#333333" stroke-width="0.4" opacity="0.3"></line>
<line x1="840.0" y1="0.0" x2="840.0" y2="720.0" stroke="#333333" stroke-width="0.4" opacity="0.3"></line>
<line x1="880.0" y1="0.0" x2="880.0" y2="720.0" stroke="#333333" stroke-width="0.4" opacity="0.3"></line>
<line x1="920.0" y1="0.0" x2="920.0" y2="720.0" stroke="#333333" stroke-width="0.4" opacity="0.3"></line>
<line x1="960.0" y1="0.0" x2="960.0" y2="720.0" stroke="#333333" stroke-width="0.4" opacity="0.3"></line>
<line x1="1000.0" y1="0.0" x2="1000.0" y2="720.0" stroke="#333333" stroke-width="0.4" opacity="0.3"></line>
<line x1="1040.0" y1="0.0" x2="1040.0" y2="720.0" stroke="#333333" stroke-width="0.4" opacity="0.3"></line>
<line x1="1080.0" y1="0.0" x2="1080.0" y2="720.0" stroke="#333333" stroke-width="0.4" opacity="0.3"></line>
<line x1="1120.0" y1="0.0" x2="1120.0" y2="720.0" stroke="#333333" stroke-width="0.4" opacity="0.3"></line>
<line x1="1160.0" y1="0.0" x2="1160.0" y2="720.0" stroke="#333333" stroke-width="0.4" opacity="0.3"></line>
<line x1="1200.0" y1="0.0" x2="1200.0" y2="720.0" stroke="#333333" stroke-width="0.4" opacity="0.3"></line>
<line x1="0.0" y1="0.0" x2="1220.0" y2="0.0" stroke="#333333" stroke-width="0.4" opacity="0.3"></line>
<line x1="0.0" y1="40.0" x2="1220.0" y2="40.0" stroke="#333333" stroke-width="0.4" opacity="0.3"></line>
<line x1="0.0" y1="80.0" x2="1220.0" y2="80.0" stroke="#333333" stroke-width="0.4" opacity="0.3"></line>
<line x1="0.0" y1="120.0" x2="1220.0" y2="120.0" stroke="#333333" stroke-width="0.4" opacity="0.3"></line>
<line x1="0.0" y1="160.0" x2="1220.0" y2="160.0" stroke="#333333" stroke-width="0.4" opacity="0.3"></line>
<line x1="0.0" y1="200.0" x2="1220.0" y2="200.0" stroke="#333333" stroke-width="0.4" opacity="0.3"></line>
<line x1="0.0" y1="240.0" x2="1220.0" y2="240.0" stroke="#333333" stroke-width="0.4" opacity="0.3"></line>
<line x1="0.0" y1="280.0" x2="1220.0" y2="280.0" stroke="#333333" stroke-width="0.4" opacity="0.3"></line>
<line x1="0.0" y1="320.0" x2="1220.0" y2="320.0" stroke="#333333" stroke-width="0.4" opacity="0.3"></line>
<line x1="0.0" y1="360.0" x2="1220.0" y2="360.0" stroke="#333333" stroke-width="0.4" opacity="0.3"></line>
<line x1="0.0" y1="400.0" x2="1220.0" y2="400.0" stroke="#333333" stroke-width="0.4" opacity="0.3"></line>
<line x1="0.0" y1="440.0" x2="1220.0" y2="440.0" stroke="#333333" stroke-width="0.4" opacity="0.3"></line>
<line x1="0.0" y1="480.0" x2="1220.0" y2="480.0" stroke="#333333" stroke-width="0.4" opacity="0.3"></line>
<line x1="0.0" y1="520.0" x2="1220.0" y2="520.0" stroke="#333333" stroke-width="0.4" opacity="0.3"></line>
<line x1="0.0" y1="560.0" x2="1220.0" y2="560.0" stroke="#333333" stroke-width="0.4" opacity="0.3"></line>
<line x1="0.0" y1="600.0" x2="1220.0" y2="600.0" stroke="#333333" stroke-width="0.4" opacity="0.3"></line>
<line x1="0.0" y1="640.0" x2="1220.0" y2="640.0" stroke="#333333" stroke-width="0.4" opacity="0.3"></line>
<line x1="0.0" y1="680.0" x2="1220.0" y2="680.0" stroke="#333333" stroke-width="0.4" opacity="0.3"></line>
<text x="610.0" y="26.0" fill="#ffffff" font-size="13" text-anchor="middle" font-family="monospace" font-weight="bold">X Truth Machine</text>
<text x="610.0" y="41.0" fill="#ffffff" font-size="7" text-anchor="middle" font-family="monospace">Binary classifier. Two parallel FSPLIT paths: true→IFIX, false→IFIX. No FFUSE.</text>
<text x="66.0" y="330.0" fill="#ffffff" font-size="7" text-anchor="start" font-family="monospace">main</text>
<line x1="487.5" y1="300.0" x2="487.5" y2="360.0" stroke="#ffffff" stroke-width="1.0" opacity="1.0" stroke-dasharray="4,3"></line>
<line x1="492.5" y1="300.0" x2="492.5" y2="360.0" stroke="#ffffff" stroke-width="1.0" opacity="1.0" stroke-dasharray="4,3"></line>
<text x="490.0" y="300.0" fill="#ffffff" font-size="8" text-anchor="middle" font-family="monospace">×</text>
<text x="490.0" y="360.0" fill="#ffffff" font-size="8" text-anchor="middle" font-family="monospace">×</text>
<text x="490.0" y="293.0" fill="#ffffff" font-size="6" text-anchor="middle" font-family="monospace">IFIX</text>
<line x1="157.0" y1="330.0" x2="223.0" y2="330.0" stroke="#ffffff" stroke-width="2.0" opacity="1.0"></line>
<polygon points="157.0,330.0 165.0,326.8 165.0,333.2" fill="#ffffff"></polygon>
<circle cx="190.0" cy="330.0" r="5" fill="#000000" stroke="#ffffff" stroke-width="0.6"></circle>
<text x="190.0" y="333.0" fill="#ffffff" font-size="7" text-anchor="middle" font-family="monospace">←</text>
<text x="190.0" y="322.0" fill="#ffffff" font-size="6" text-anchor="middle" font-family="monospace">↑→↑</text>
<line x1="277.0" y1="330.0" x2="343.0" y2="330.0" stroke="#ffffff" stroke-width="1.5" opacity="1.0"></line>
<polygon points="343.0,330.0 335.0,333.2 335.0,326.8" fill="#ffffff"></polygon>
<circle cx="310.0" cy="330.0" r="5" fill="#000000" stroke="#ffffff" stroke-width="0.6"></circle>
<text x="310.0" y="333.0" fill="#ffffff" font-size="7" text-anchor="middle" font-family="monospace">◇</text>
<text x="310.0" y="322.0" fill="#ffffff" font-size="6" text-anchor="middle" font-family="monospace">↑→↑</text>
<line x1="397.0" y1="330.0" x2="463.0" y2="330.0" stroke="#ffffff" stroke-width="1.5" opacity="1.0"></line>
<polygon points="463.0,330.0 455.0,333.2 455.0,326.8" fill="#ffffff"></polygon>
<circle cx="430.0" cy="330.0" r="5" fill="#000000" stroke="#ffffff" stroke-width="0.6"></circle>
<text x="430.0" y="333.0" fill="#ffffff" font-size="7" text-anchor="middle" font-family="monospace">+</text>
<text x="430.0" y="322.0" fill="#ffffff" font-size="6" text-anchor="middle" font-family="monospace">↑→↑</text>
<line x1="517.0" y1="330.0" x2="583.0" y2="330.0" stroke="#ffffff" stroke-width="1.5" opacity="1.0" stroke-dasharray="2,2"></line>
<polygon points="583.0,330.0 575.0,333.2 575.0,326.8" fill="#ffffff"></polygon>
<text x="550.0" y="322.0" fill="#ffffff" font-size="6" text-anchor="middle" font-family="monospace">↑→↑</text>
<line x1="637.0" y1="330.0" x2="703.0" y2="330.0" stroke="#ffffff" stroke-width="1.5" opacity="1.0"></line>
<polygon points="637.0,330.0 645.0,326.8 645.0,333.2" fill="#ffffff"></polygon>
<circle cx="670.0" cy="330.0" r="5" fill="#000000" stroke="#ffffff" stroke-width="0.6"></circle>
<text x="670.0" y="333.0" fill="#ffffff" font-size="7" text-anchor="middle" font-family="monospace">←</text>
<text x="670.0" y="322.0" fill="#ffffff" font-size="6" text-anchor="middle" font-family="monospace">↑→↑</text>
<line x1="757.0" y1="330.0" x2="823.0" y2="330.0" stroke="#ffffff" stroke-width="1.0" opacity="1.0"></line>
<polygon points="823.0,330.0 815.0,333.2 815.0,326.8" fill="#ffffff"></polygon>
<circle cx="790.0" cy="330.0" r="5" fill="#000000" stroke="#ffffff" stroke-width="0.6"></circle>
<text x="790.0" y="333.0" fill="#ffffff" font-size="7" text-anchor="middle" font-family="monospace">◇</text>
<text x="790.0" y="322.0" fill="#ffffff" font-size="6" text-anchor="middle" font-family="monospace">↑→↑</text>
<line x1="877.0" y1="330.0" x2="943.0" y2="330.0" stroke="#ffffff" stroke-width="1.0" opacity="1.0"></line>
<polygon points="943.0,330.0 935.0,333.2 935.0,326.8" fill="#ffffff"></polygon>
<circle cx="910.0" cy="330.0" r="5" fill="#000000" stroke="#ffffff" stroke-width="0.6"></circle>
<text x="910.0" y="333.0" fill="#ffffff" font-size="7" text-anchor="middle" font-family="monospace">×</text>
<text x="910.0" y="322.0" fill="#ffffff" font-size="6" text-anchor="middle" font-family="monospace">↑→↑</text>
<circle fill="none" stroke="#ffffff" stroke-width="1.3" cx="130.0" cy="330.0" r="20.0"></circle>
<circle cx="130.0" cy="330.0" r="8" fill="url(#hatch-T)" stroke="#ffffff" stroke-width="0.6"></circle>
<circle cx="106.0" cy="330.0" r="2.5" fill="#000000" stroke="#ffffff" stroke-width="0.8"></circle>
<circle cx="154.0" cy="330.0" r="2.5" fill="#ffffff"></circle>
<text x="130.0" y="304.0" fill="#ffffff" font-size="9" text-anchor="middle" font-family="monospace" font-weight="bold">IM</text>
<text x="130.0" y="362.0" fill="#ffffff" font-size="5" text-anchor="middle" font-family="monospace">IMSCRIB</text>
<polygon fill="none" stroke="#ffffff" stroke-width="1.3" points="250.0,310.0 270.0,330 250.0,350.0 230.0,330"></polygon>
<circle cx="250.0" cy="330.0" r="8" fill="url(#hatch-T)" stroke="#ffffff" stroke-width="0.6"></circle>
<circle cx="226.0" cy="330.0" r="2.5" fill="#000000" stroke="#ffffff" stroke-width="0.8"></circle>
<circle cx="274.0" cy="330.0" r="2.5" fill="#ffffff"></circle>
<text x="250.0" y="304.0" fill="#ffffff" font-size="9" text-anchor="middle" font-family="monospace" font-weight="bold">FS</text>
<text x="250.0" y="362.0" fill="#ffffff" font-size="5" text-anchor="middle" font-family="monospace">FSPLIT</text>
<polygon fill="none" stroke="#ffffff" stroke-width="1.3" points="387.3,340.0 370.0,350.0 352.7,340.0 352.7,320.0 370.0,310.0 387.3,320.0"></polygon>
<circle cx="370.0" cy="330.0" r="8" fill="url(#hatch-T)" stroke="#ffffff" stroke-width="0.6"></circle>
<circle cx="346.0" cy="330.0" r="2.5" fill="#000000" stroke="#ffffff" stroke-width="0.8"></circle>
<circle cx="394.0" cy="330.0" r="2.5" fill="#ffffff"></circle>
<text x="370.0" y="304.0" fill="#ffffff" font-size="9" text-anchor="middle" font-family="monospace" font-weight="bold">ET</text>
<text x="370.0" y="362.0" fill="#ffffff" font-size="5" text-anchor="middle" font-family="monospace">EVALT</text>
<rect fill="none" stroke="#ffffff" stroke-width="1.3" x="470.0" y="310.0" width="40.0" height="40.0"></rect>
<circle cx="490.0" cy="330.0" r="8" fill="url(#hatch-T)" stroke="#ffffff" stroke-width="0.6"></circle>
<circle cx="466.0" cy="330.0" r="2.5" fill="#000000" stroke="#ffffff" stroke-width="0.8"></circle>
<circle cx="514.0" cy="330.0" r="2.5" fill="#ffffff"></circle>
<text x="490.0" y="304.0" fill="#ffffff" font-size="9" text-anchor="middle" font-family="monospace" font-weight="bold">IX</text>
<text x="490.0" y="362.0" fill="#ffffff" font-size="5" text-anchor="middle" font-family="monospace">IFIX</text>
<circle fill="none" stroke="#ffffff" stroke-width="1.3" cx="610.0" cy="330.0" r="20.0"></circle>
<circle cx="610.0" cy="330.0" r="8" fill="url(#hatch-T)" stroke="#ffffff" stroke-width="0.6"></circle>
<circle cx="586.0" cy="330.0" r="2.5" fill="#000000" stroke="#ffffff" stroke-width="0.8"></circle>
<circle cx="634.0" cy="330.0" r="2.5" fill="#ffffff"></circle>
<text x="610.0" y="304.0" fill="#ffffff" font-size="9" text-anchor="middle" font-family="monospace" font-weight="bold">IM</text>
<text x="610.0" y="362.0" fill="#ffffff" font-size="5" text-anchor="middle" font-family="monospace">IMSCRIB</text>
<polygon fill="none" stroke="#ffffff" stroke-width="1.3" points="730.0,310.0 750.0,330 730.0,350.0 710.0,330"></polygon>
<circle cx="730.0" cy="330.0" r="8" fill="url(#hatch-T)" stroke="#ffffff" stroke-width="0.6"></circle>
<circle cx="706.0" cy="330.0" r="2.5" fill="#000000" stroke="#ffffff" stroke-width="0.8"></circle>
<circle cx="754.0" cy="330.0" r="2.5" fill="#ffffff"></circle>
<text x="730.0" y="304.0" fill="#ffffff" font-size="9" text-anchor="middle" font-family="monospace" font-weight="bold">FS</text>
<text x="730.0" y="362.0" fill="#ffffff" font-size="5" text-anchor="middle" font-family="monospace">FSPLIT</text>
<polygon fill="none" stroke="#ffffff" stroke-width="1.3" points="867.3,340.0 850.0,350.0 832.7,340.0 832.7,320.0 850.0,310.0 867.3,320.0"></polygon>
<circle cx="850.0" cy="330.0" r="8" fill="url(#hatch-T)" stroke="#ffffff" stroke-width="0.6"></circle>
<circle cx="826.0" cy="330.0" r="2.5" fill="#000000" stroke="#ffffff" stroke-width="0.8"></circle>
<circle cx="874.0" cy="330.0" r="2.5" fill="#ffffff"></circle>
<text x="850.0" y="304.0" fill="#ffffff" font-size="9" text-anchor="middle" font-family="monospace" font-weight="bold">EF</text>
<text x="850.0" y="362.0" fill="#ffffff" font-size="5" text-anchor="middle" font-family="monospace">EVALF</text>
<rect fill="none" stroke="#ffffff" stroke-width="1.3" x="950.0" y="310.0" width="40.0" height="40.0"></rect>
<circle cx="970.0" cy="330.0" r="8" fill="url(#hatch-T)" stroke="#ffffff" stroke-width="0.6"></circle>
<circle cx="946.0" cy="330.0" r="2.5" fill="#000000" stroke="#ffffff" stroke-width="0.8"></circle>
<circle cx="994.0" cy="330.0" r="2.5" fill="#ffffff"></circle>
<text x="970.0" y="304.0" fill="#ffffff" font-size="9" text-anchor="middle" font-family="monospace" font-weight="bold">IX</text>
<text x="970.0" y="362.0" fill="#ffffff" font-size="5" text-anchor="middle" font-family="monospace">IFIX</text>
<text x="14.0" y="72.0" fill="#ffffff" font-size="6" text-anchor="start" font-family="monospace" font-weight="bold">EDGES</text>
<line x1="14.0" y1="82.0" x2="36.0" y2="82.0" stroke="#ffffff" stroke-width="1.5" opacity="0.7"></line>
<text x="42.0" y="84.0" fill="#ffffff" font-size="5" text-anchor="start" font-family="monospace">VI</text>
<line x1="14.0" y1="91.5" x2="36.0" y2="91.5" stroke="#ffffff" stroke-width="1.5" opacity="0.7" stroke-dasharray="5,2,1,2,1,2"></line>
<text x="42.0" y="93.5" fill="#ffffff" font-size="5" text-anchor="start" font-family="monospace">TA</text>
<line x1="14.0" y1="101.0" x2="36.0" y2="101.0" stroke="#ffffff" stroke-width="2.0" opacity="0.7"></line>
<text x="42.0" y="103.0" fill="#ffffff" font-size="5" text-anchor="start" font-family="monospace">AF</text>
<line x1="14.0" y1="110.5" x2="36.0" y2="110.5" stroke="#ffffff" stroke-width="1.5" opacity="0.7" stroke-dasharray="6,4"></line>
<text x="42.0" y="112.5" fill="#ffffff" font-size="5" text-anchor="start" font-family="monospace">AR</text>
<line x1="14.0" y1="119.0" x2="36.0" y2="119.0" stroke="#ffffff" stroke-width="1.0" opacity="0.7"></line>
<line x1="14.0" y1="121.0" x2="36.0" y2="121.0" stroke="#ffffff" stroke-width="1.0" opacity="0.7"></line>
<text x="42.0" y="122.0" fill="#ffffff" font-size="5" text-anchor="start" font-family="monospace">CL</text>
<line x1="14.0" y1="129.5" x2="36.0" y2="129.5" stroke="#ffffff" stroke-width="1.5" opacity="0.7"></line>
<text x="42.0" y="131.5" fill="#ffffff" font-size="5" text-anchor="start" font-family="monospace">IM</text>
<line x1="14.0" y1="139.0" x2="36.0" y2="139.0" stroke="#ffffff" stroke-width="1.5" opacity="0.7"></line>
<text x="42.0" y="141.0" fill="#ffffff" font-size="5" text-anchor="start" font-family="monospace">FS</text>
<line x1="14.0" y1="148.5" x2="36.0" y2="148.5" stroke="#ffffff" stroke-width="1.5" opacity="0.7"></line>
<text x="42.0" y="150.5" fill="#ffffff" font-size="5" text-anchor="start" font-family="monospace">FF</text>
<line x1="14.0" y1="158.0" x2="36.0" y2="158.0" stroke="#ffffff" stroke-width="1.5" opacity="0.7"></line>
<text x="42.0" y="160.0" fill="#ffffff" font-size="5" text-anchor="start" font-family="monospace">ET</text>
<line x1="14.0" y1="167.5" x2="36.0" y2="167.5" stroke="#ffffff" stroke-width="1.5" opacity="0.7"></line>
<text x="42.0" y="169.5" fill="#ffffff" font-size="5" text-anchor="start" font-family="monospace">EF</text>
<polyline points="14.0,179.0 18.0,175.0 22.0,179.0 26.0,175.0 30.0,179.0 34.0,175.0 36.0,177.0" fill="none" stroke="#ffffff" stroke-width="1.0"></polyline>
<text x="42.0" y="179.0" fill="#ffffff" font-size="5" text-anchor="start" font-family="monospace">EG</text>
<line x1="14.0" y1="186.5" x2="36.0" y2="186.5" stroke="#ffffff" stroke-width="1.5" opacity="0.7" stroke-dasharray="2,2"></line>
<text x="42.0" y="188.5" fill="#ffffff" font-size="5" text-anchor="start" font-family="monospace">IX</text>
<text x="14.0" y="195.0" fill="#ffffff" font-size="6" text-anchor="start" font-family="monospace" font-weight="bold">GUARD</text>
<circle cx="17" cy="206" r="2.5" fill="#000000" stroke="#ffffff" stroke-width="0.8"></circle>
<text x="24.0" y="208.0" fill="#ffffff" font-size="5" text-anchor="start" font-family="monospace">in</text>
<circle cx="17" cy="216" r="2.5" fill="#ffffff"></circle>
<text x="24.0" y="218.0" fill="#ffffff" font-size="5" text-anchor="start" font-family="monospace">out</text>
<text x="14.0" y="231.0" fill="#ffffff" font-size="6" text-anchor="start" font-family="monospace" font-weight="bold">NODES</text>
<circle fill="none" stroke="#ffffff" stroke-width="1.0" cx="18.0" cy="246.0" r="4.0"></circle>
<text x="28.0" y="248.0" fill="#ffffff" font-size="5" text-anchor="start" font-family="monospace">LOGI</text>
<polygon fill="none" stroke="#ffffff" stroke-width="1.0" points="18,254.0 22.0,258 18,262.0 14.0,258"></polygon>
<text x="28.0" y="260.0" fill="#ffffff" font-size="5" text-anchor="start" font-family="monospace">FROB</text>
<polygon fill="none" stroke="#ffffff" stroke-width="1.0" points="21.5,272.0 18.0,274.0 14.5,272.0 14.5,268.0 18.0,266.0 21.5,268.0"></polygon>
<text x="28.0" y="272.0" fill="#ffffff" font-size="5" text-anchor="start" font-family="monospace">DIAL</text>
<rect fill="none" stroke="#ffffff" stroke-width="1.0" x="14.0" y="278.0" width="8.0" height="8.0"></rect>
<text x="28.0" y="284.0" fill="#ffffff" font-size="5" text-anchor="start" font-family="monospace">LINE</text>
<text x="14.0" y="294.0" fill="#ffffff" font-size="6" text-anchor="start" font-family="monospace" font-weight="bold">PAIRS</text>
<circle cx="18" cy="306" r="5" fill="#000000" stroke="#ffffff" stroke-width="0.8"></circle>
<text x="18.0" y="309.0" fill="#ffffff" font-size="6" text-anchor="middle" font-family="monospace">1</text>
<text x="28.0" y="308.0" fill="#ffffff" font-size="5" text-anchor="start" font-family="monospace">pair</text>
<text x="14.0" y="324.0" fill="#ffffff" font-size="6" text-anchor="start" font-family="monospace" font-weight="bold">REG Δ</text>
<text x="14.0" y="336.0" fill="#ffffff" font-size="5" text-anchor="start" font-family="monospace">↑ T</text>
<text x="14.0" y="345.0" fill="#ffffff" font-size="5" text-anchor="start" font-family="monospace">↓ F</text>
<text x="14.0" y="354.0" fill="#ffffff" font-size="5" text-anchor="start" font-family="monospace">↑↓ B</text>
<text x="610.0" y="708.0" fill="#ffffff" font-size="7" text-anchor="middle" font-family="monospace">Ouroboricity: O₁</text>
<path d="M 157.0,330.0 L 157.0,10.0 L 943.0,10.0 L 943.0,330.0" fill="none" stroke="#ffffff" stroke-width="1.2"></path>
<polygon points="943.0,330.0 939.8,322.0 946.2,322.0" fill="#ffffff"></polygon>
<text x="550.0" y="12.0" fill="#ffffff" font-size="7" text-anchor="middle" font-family="monospace">O₁</text>
</svg>